<?xml version="1.0" encoding="UTF-8"?>
<svg version="1.1" xmlns="http://www.w3.org/2000/svg" width="1284" height="800">
<path d="M0 0 C423.72 0 847.44 0 1284 0 C1284 264 1284 528 1284 800 C860.28 800 436.56 800 0 800 C0 536 0 272 0 0 Z " fill="#FEFEFE" transform="translate(0,0)"/>
<path d="M0 0 C18.0224603 -1.32409912 31.11717283 6.51644374 44.44140625 17.76171875 C52.40025154 24.72418952 58.21401129 32.21386899 64 41 C68.46554415 40.58204267 72.77908107 40.13287629 77.12890625 39.02734375 C100.02077693 33.27442653 124.48565176 34.17885749 147 41 C147.8156543 41.24008789 148.63130859 41.48017578 149.47167969 41.72753906 C154.01025463 43.06993447 158.51455279 44.4898566 163 46 C163.38671875 44.92492187 163.38671875 44.92492187 163.78125 43.828125 C169.4544785 30.66332554 180.79386554 21.28992466 193.5 15.375 C203.68118268 11.37524966 214.23902122 11.67496504 225 12 C225.77214844 11.99484375 226.54429687 11.9896875 227.33984375 11.984375 C233.95386324 12.26403756 240.6509862 16.34054722 246 20 C247.3828125 22.23046875 247.3828125 22.23046875 248 24 C246.75336669 24.50833591 245.50250613 25.00631145 244.25 25.5 C243.20585938 25.91765625 243.20585938 25.91765625 242.140625 26.34375 C240 27 240 27 236 27 C236 27.66 236 28.32 236 29 C236.804375 29.185625 237.60875 29.37125 238.4375 29.5625 C250.66571246 34.49669099 260.11209862 46.11514974 265.3359375 57.921875 C266 60 266 60 266 64 C262.37 64 258.74 64 255 64 C255.40992188 64.845625 255.81984375 65.69125 256.2421875 66.5625 C257.05042969 68.2640625 257.05042969 68.2640625 257.875 70 C258.40867187 71.11375 258.94234375 72.2275 259.4921875 73.375 C262.64520305 80.95530682 263.27826969 87.38849651 263.125 95.5 C263.11597656 96.4178125 263.10695313 97.335625 263.09765625 98.28125 C263.07432432 100.52111556 263.04159235 102.76041183 263 105 C259.78147169 104.36934243 257.49198931 103.21979305 254.75 101.4375 C254.04359375 100.98246094 253.3371875 100.52742188 252.609375 100.05859375 C252.07828125 99.70925781 251.5471875 99.35992187 251 99 C251.0314209 99.89138672 251.0314209 99.89138672 251.06347656 100.80078125 C251.14741854 103.53367705 251.19890281 106.26630057 251.25 109 C251.28351563 109.93457031 251.31703125 110.86914062 251.3515625 111.83203125 C251.44296255 118.36713489 250.36488092 122.38303343 247 128 C241.84374012 128.2062504 239.09792156 127.69930719 234 126 C233.67 130.29 233.34 134.58 233 139 C228.07872966 139.16682272 224.49656104 139.24828052 220 137 C220.15984375 138.1034375 220.3196875 139.206875 220.484375 140.34375 C223.49121955 164.6117578 219.8224338 187.98867388 204.72265625 207.71875 C199.31503627 214.43355548 193.50472377 220.66244434 185 223 C185.19335938 223.70898438 185.38671875 224.41796875 185.5859375 225.1484375 C191.22316748 248.19968483 191.7978522 273.60301269 188 297 C187.83371094 298.27359375 187.66742187 299.5471875 187.49609375 300.859375 C187 304 187 304 186 305 C183.66796875 305.359375 183.66796875 305.359375 181 305 C179.11328125 303.015625 179.11328125 303.015625 177.3125 300.25 C174.23766542 295.72887612 171.02601542 291.48171987 167.5 287.3125 C167.05438721 286.78366211 166.60877441 286.25482422 166.1496582 285.70996094 C165.10271527 284.47081466 164.05181152 283.2350164 163 282 C157.92474701 282.44922202 155.00297892 284.97013303 151.1875 288.0625 C150.59001953 288.53494141 149.99253906 289.00738281 149.37695312 289.49414062 C147.91156874 290.65472506 146.45489124 291.82628832 145 293 C144.34 292.67 143.68 292.34 143 292 C143.556875 291.21238281 144.11375 290.42476563 144.6875 289.61328125 C150.09586337 281.91139989 155.15374821 274.06828296 160 266 C163.65678143 266.24204099 164.88421082 266.88528129 167.53515625 269.51171875 C168.39042335 270.55998275 169.23261015 271.61903285 170.0625 272.6875 C170.48337891 273.20505859 170.90425781 273.72261719 171.33789062 274.25585938 C174.11186153 277.70934564 176.59143244 281.28980471 179 285 C180.14121528 277.98109699 179.98581055 271.21633899 179.6875 264.125 C179.61692383 262.34428101 179.61692383 262.34428101 179.54492188 260.52758789 C179.64682938 244.88811534 179.64682938 244.88811534 176 230 C175.59910156 230.79921875 175.19820312 231.5984375 174.78515625 232.421875 C171.15159741 239.4418118 167.21955862 245.71755126 162.30859375 251.953125 C157.02845111 258.92184117 152.54979952 266.34571576 148.125 273.875 C138.67418794 289.77449758 138.67418794 289.77449758 134 295 C133.34 295 132.68 295 132 295 C130.25226354 292.63630781 128.61480388 290.26495911 127 287.8125 C123.329441 282.36209145 119.60910787 276.9768501 115.625 271.75 C114.85414063 270.73421875 114.08328125 269.7184375 113.2890625 268.671875 C108.21446542 262.74862517 102.35048109 260.1616603 95.375 257 C76.84365553 248.37014965 60.22228862 237.11879473 44.5078125 224.078125 C42.85622346 222.70951851 41.18446018 221.36484437 39.4921875 220.046875 C27.31458078 210.04520428 14.55034873 195.89457146 7 182 C7 181.34 7 180.68 7 180 C3.61055315 181.69472343 2.55489381 185.46313173 0.9375 188.75 C0.57333984 189.46671875 0.20917969 190.1834375 -0.16601562 190.921875 C-2.91435692 196.22425809 -2.91435692 196.22425809 -4 202 C1.51030145 216.96186936 12.08474995 229.74125722 22 242 C22.56589844 242.70415039 23.13179687 243.40830078 23.71484375 244.13378906 C29.92055304 251.84339837 36.08635767 259.42478082 43.24609375 266.28125 C45 268 45 268 47.1875 270.75 C49.02852382 273.18793404 49.02852382 273.18793404 51.9375 275.4375 C54.53590312 277.61167404 56.4902043 279.76900537 58.59375 282.3984375 C61.98364544 286.25915175 66.11529296 289.44600571 70.0703125 292.70703125 C70.70710937 293.23683594 71.34390625 293.76664062 72 294.3125 C72.86625 295.01826172 72.86625 295.01826172 73.75 295.73828125 C75 297 75 297 75 299 C83.77108796 290.51185036 92.98151455 281.05670367 99.4453125 270.6796875 C101 269 101 269 103.39331055 268.65771484 C106 269 106 269 107.72924805 270.58886719 C108.23496338 271.31750977 108.74067871 272.04615234 109.26171875 272.796875 C109.82310547 273.5909375 110.38449219 274.385 110.96289062 275.203125 C111.81657227 276.46382813 111.81657227 276.46382813 112.6875 277.75 C113.26822266 278.575 113.84894531 279.4 114.44726562 280.25 C116.88559489 283.74540842 119.16918214 287.14346901 121 291 C116.37252065 289.30601202 112.58160045 286.86772405 108.5 284.14453125 C106.09046175 282.85175521 106.09046175 282.85175521 103.578125 282.89453125 C99.60981008 284.59609659 97.44458532 287.57912704 94.75 290.875 C93.90272339 291.88252319 93.90272339 291.88252319 93.03833008 292.91040039 C91.34577938 294.92979839 89.67097293 296.96273129 88 299 C87.05097742 300.14729771 86.10177396 301.29444585 85.15234375 302.44140625 C83.08814857 304.95049928 81.03671084 307.4685842 79 310 C75.12976834 309.47284776 73.0913898 308.60282077 70.25 305.9375 C69.56808594 305.30972656 68.88617187 304.68195313 68.18359375 304.03515625 C67.46300781 303.36355469 66.74242187 302.69195312 66 302 C64.43993076 300.62224269 62.87742534 299.24723902 61.3125 297.875 C58.08231446 295.02865735 55.03124917 292.05734313 52 289 C50.75342446 287.76349539 49.50595529 286.52789134 48.2578125 285.29296875 C46.88015605 283.9245318 45.50255306 282.55604103 44.125 281.1875 C43.10212891 280.17719727 43.10212891 280.17719727 42.05859375 279.14648438 C38.07088786 275.17776756 34.27547503 271.10868014 30.60351562 266.84643555 C29.18667214 265.21495149 27.74212833 263.62439978 26.26171875 262.05078125 C16.88336489 252.07471743 8.6402617 241.36844192 1 230 C0.64019043 229.46761719 0.28038086 228.93523437 -0.09033203 228.38671875 C-14.04819522 207.62857056 -14.04819522 207.62857056 -14 197 C-13.0218427 194.34367102 -12.10194698 192.3014681 -10.703125 189.90234375 C-10.35368835 189.2643837 -10.00425171 188.62642365 -9.64422607 187.96913147 C-8.53185341 185.94730644 -7.39228934 183.94254637 -6.25 181.9375 C-5.12827829 179.92589519 -4.0124222 177.91115626 -2.89862061 175.89515686 C-2.2066625 174.64742095 -1.50915236 173.40274081 -0.80499268 172.16184998 C2.41459885 166.44353012 4.95398763 160.75390049 6.5625 154.375 C7.47369074 150.78171673 8.56206993 147.41894103 10 144 C8.329375 144.99 8.329375 144.99 6.625 146 C-0.81118275 149.37249955 -12.30284052 149.56571983 -20 147 C-19.43174347 141.45949887 -17.37113483 136.96284034 -15 132 C-15.66 132.33 -16.32 132.66 -17 133 C-19.90882009 133.15201874 -22.77766672 133.23148077 -25.6875 133.25 C-26.87375977 133.2809375 -26.87375977 133.2809375 -28.08398438 133.3125 C-34.88213854 133.35740936 -39.28995813 131.80669458 -45 128 C-45.30862712 125.24051049 -45.42449367 122.75720998 -45.375 120 C-45.36919922 119.23631104 -45.36339844 118.47262207 -45.35742188 117.68579102 C-45.22220799 111.77080937 -44.2692581 106.49754789 -42 101 C-46.44307128 101.85637428 -50.68357102 102.73107823 -54.8125 104.625 C-58 106 -58 106 -62 106 C-63.31875805 88.78288105 -57.21756843 77.14419983 -48 63 C-52.95 63 -57.9 63 -63 63 C-64.69672191 56.21311237 -60.18500826 50.70621653 -56.765625 44.90625 C-51.71582778 37.29696652 -42.23770774 28.4956422 -33.23046875 26.3359375 C-32.49441406 26.22507812 -31.75835937 26.11421875 -31 26 C-33.13432142 22.79851787 -33.68419896 22.47793261 -37.125 21.3125 C-37.84945313 21.06113281 -38.57390625 20.80976562 -39.3203125 20.55078125 C-39.87460937 20.36902344 -40.42890625 20.18726562 -41 20 C-41 19.01 -41 18.02 -41 17 C-31.88136453 9.87903877 -21.31422225 8.64462849 -10.125 8.625 C-9.24577881 8.62338867 -8.36655762 8.62177734 -7.46069336 8.62011719 C-2.00798452 8.71306989 2.76218583 9.48091236 8 11 C5.61094718 7.24577414 3.19982717 4.08554763 0 1 C0 0.67 0 0.34 0 0 Z " fill="#030303" transform="translate(521,87)"/>
<path d="M0 0 C1.5631897 0.00785522 1.5631897 0.00785522 3.15795898 0.01586914 C4.28266602 0.0190918 5.40737305 0.02231445 6.56616211 0.02563477 C7.75016602 0.03401367 8.93416992 0.04239258 10.15405273 0.05102539 C11.34192383 0.05553711 12.52979492 0.06004883 13.75366211 0.06469727 C16.69967499 0.07652864 19.64558954 0.09301252 22.59155273 0.11352539 C22.59394109 0.70951475 22.59632944 1.30550411 22.59879017 1.91955376 C22.65787364 16.40763771 22.73338069 30.89556676 22.82726765 45.38346672 C22.87227248 52.38966241 22.91167613 59.39580673 22.93798828 66.40209961 C22.96337726 73.15841641 23.00424987 79.9144746 23.054739 86.67065811 C23.07147652 89.25352275 23.08294769 91.83642685 23.08916664 94.41933823 C23.09873298 98.02581656 23.12670262 101.63170282 23.15917969 105.23803711 C23.1577446 106.31553223 23.15630951 107.39302734 23.15483093 108.50317383 C23.16736908 109.48196503 23.17990723 110.46075623 23.19282532 111.46920776 C23.19743428 112.32278807 23.20204325 113.17636837 23.20679188 114.05581474 C23.3972485 115.07438151 23.3972485 115.07438151 23.59155273 116.11352539 C25.07655273 117.10352539 25.07655273 117.10352539 26.59155273 118.11352539 C26.59155273 118.77352539 26.59155273 119.43352539 26.59155273 120.11352539 C27.92117346 120.60289969 29.25554699 121.0793612 30.59155273 121.55102539 C31.33405273 121.81786133 32.07655273 122.08469727 32.84155273 122.35961914 C36.34306759 123.31955148 39.98887662 123.66319088 43.59155273 124.11352539 C43.59155273 131.37352539 43.59155273 138.63352539 43.59155273 146.11352539 C36.31333564 146.11352539 30.36738763 146.0725357 23.46655273 144.48852539 C22.69102051 144.31248779 21.91548828 144.1364502 21.11645508 143.95507812 C12.93351912 141.93902986 6.24906146 138.40353905 1.59155273 131.11352539 C1.59155273 130.45352539 1.59155273 129.79352539 1.59155273 129.11352539 C1.14166992 129.53762695 0.69178711 129.96172852 0.22827148 130.39868164 C-11.65633417 141.23534611 -23.97886785 147.91616527 -40.28344727 147.67602539 C-41.33411377 147.66579346 -42.38478027 147.65556152 -43.46728516 147.64501953 C-55.9372988 147.30449854 -65.14606709 143.60971603 -74.40844727 135.11352539 C-75.58407227 134.04038086 -75.58407227 134.04038086 -76.78344727 132.94555664 C-87.69413232 122.51939214 -93.38250204 110.01118792 -93.95361328 94.8684082 C-94.07036748 78.41757747 -88.70330601 65.17233851 -77.45922852 53.14477539 C-66.51584865 42.30561819 -53.23984752 38.81095615 -38.25634766 38.79882812 C-25.7364833 38.98908593 -16.55814395 42.93447164 -6.40844727 50.11352539 C-4.92344727 51.10352539 -4.92344727 51.10352539 -3.40844727 52.11352539 C-3.41066788 51.47681412 -3.41288849 50.84010284 -3.41517639 50.18409729 C-3.43722767 43.58237263 -3.4523532 36.98065835 -3.46337891 30.37890625 C-3.46842083 27.91210506 -3.47525417 25.44530687 -3.48388672 22.97851562 C-3.49595851 19.4414801 -3.50167682 15.90448394 -3.50610352 12.36743164 C-3.5112648 11.25703018 -3.51642609 10.14662872 -3.52174377 9.00257874 C-3.52181931 7.98159592 -3.52189484 6.9606131 -3.52197266 5.90869141 C-3.52419327 5.0049025 -3.52641388 4.10111359 -3.52870178 3.16993713 C-3.35306814 0.16651495 -3.01588079 0.14215758 0 0 Z " fill="#040404" transform="translate(1052.408447265625,458.886474609375)"/>
<path d="M0 0 C8.25 0 16.5 0 25 0 C25.0093457 3.3613916 25.01869141 6.7227832 25.02832031 10.18603516 C25.06208245 21.29016402 25.11762729 32.39410688 25.18390274 43.49808693 C25.22368162 50.23066218 25.25607984 56.96312075 25.27099609 63.69580078 C25.28541106 70.19280506 25.32053554 76.68950597 25.36830902 83.18635178 C25.38315004 85.66542798 25.39104257 88.14455581 25.39188385 90.6236763 C25.39424695 94.09537599 25.42127589 97.56607093 25.45410156 101.03759766 C25.4490712 102.06330872 25.44404083 103.08901978 25.43885803 104.14581299 C25.52559445 110.07233079 26.07651655 113.46998854 30 118 C31.78200063 119.47174029 31.78200063 119.47174029 33.75 120.3125 C34.36359375 120.61800781 34.9771875 120.92351562 35.609375 121.23828125 C38.95654519 122.30478156 42.51415575 122.56426947 46 123 C46 129.93 46 136.86 46 144 C31.90214508 144.49466158 18.16075998 143.8549757 7 134 C4 130.44044944 4 130.44044944 4 128 C3.34 128 2.68 128 2 128 C1.79117188 128.56847656 1.58234375 129.13695312 1.3671875 129.72265625 C-3.84225451 138.40009823 -18.06989826 144.2451194 -27.421875 146.61328125 C-42.64633713 148.89695057 -56.26294325 145.52294867 -68.74609375 136.73046875 C-78.32831333 129.37358266 -83.33866733 120.93865324 -88 110 C-88.39445312 109.09765625 -88.78890625 108.1953125 -89.1953125 107.265625 C-92.41624276 94.19427697 -91.74619849 77.77907673 -85 66 C-84.55398438 65.19046875 -84.10796875 64.3809375 -83.6484375 63.546875 C-76.08965374 51.13188939 -64.59547842 42.55633212 -50.6652832 38.58447266 C-46.28814767 37.62460617 -42.02845757 37.55299497 -37.5625 37.625 C-36.64162598 37.63587646 -35.72075195 37.64675293 -34.77197266 37.65795898 C-20.32423815 37.99659773 -11.19654837 43.04276131 0 52 C0 34.84 0 17.68 0 0 Z " fill="#040404" transform="translate(516,460)"/>
<path d="M0 0 C-0.020625 -1.11375 -0.04125 -2.2275 -0.0625 -3.375 C0 -7 0 -7 1 -9 C8.92 -9 16.84 -9 25 -9 C25.0093457 -6.92662354 25.01869141 -4.85324707 25.02832031 -2.71704102 C25.06220161 4.16024763 25.11781194 11.03723973 25.18390274 17.91429043 C25.22328554 22.08081494 25.25551874 26.24713103 25.27099609 30.41381836 C25.28622381 34.44061026 25.32077611 38.4668288 25.36830902 42.49336433 C25.3830602 44.0237636 25.3910374 45.55424476 25.39188385 47.08471489 C25.35818945 59.10392804 25.35818945 59.10392804 30 70 C34.23109532 73.9746653 40.46473523 74.13303082 46 75 C46 81.93 46 88.86 46 96 C33.16416816 96 20.85087721 94.39290535 10 87 C7.66796875 84.3046875 7.66796875 84.3046875 6 82 C1.58949241 84.02057737 -2.34639 86.81786332 -6.33984375 89.546875 C-15.14321807 95.36373874 -23.0170699 97.65413905 -33.5625 97.4375 C-35.02719727 97.44813477 -35.02719727 97.44813477 -36.52148438 97.45898438 C-42.87984152 97.40369431 -48.12324165 96.40764547 -54 94 C-54.89589844 93.64679688 -55.79179688 93.29359375 -56.71484375 92.9296875 C-70.74954201 86.26998885 -79.35387066 74.90049959 -85.0546875 60.76171875 C-89.47645523 47.84357914 -88.2939149 31.4461657 -83 19 C-76.06797419 5.43428873 -64.76955425 -4.59694238 -50.4375 -10 C-32.22028943 -14.59157189 -15.10641656 -10.25774415 0 0 Z " fill="#040404" transform="translate(791,509)"/>
<path d="M0 0 C82.74690594 0 82.74690594 0 96.74609375 13.6171875 C106.91905251 24.37196193 110.65115817 33.79694235 110.54321289 48.57861328 C110.2793 55.8598672 108.68979504 61.66487571 105 68 C104.33097656 69.20849609 104.33097656 69.20849609 103.6484375 70.44140625 C97.66505894 80.31899488 88.74903914 86.94455312 78 91 C72.27189844 92.05786171 66.70935309 92.13089322 60.91015625 92.09765625 C60.07190308 92.09664917 59.2336499 92.09564209 58.36999512 92.09460449 C55.26748264 92.08941048 52.1649898 92.07544948 49.0625 92.0625 C42.111875 92.041875 35.16125 92.02125 28 92 C28 109.49 28 126.98 28 145 C18.76 145 9.52 145 0 145 C0 97.15 0 49.3 0 0 Z " fill="#040404" transform="translate(188,460)"/>
<path d="M0 0 C9.67073736 7.34177538 15.61741842 19.09098832 17.953125 30.66796875 C17.953125 38.25796875 17.953125 45.84796875 17.953125 53.66796875 C-9.436875 53.66796875 -36.826875 53.66796875 -65.046875 53.66796875 C-61.43814133 63.29125852 -58.33383056 68.0986735 -49.19921875 72.734375 C-46.40365453 73.94697 -44.09647962 74.48125826 -41.046875 74.66796875 C-40.31984375 74.71824219 -39.5928125 74.76851562 -38.84375 74.8203125 C-29.3030553 75.19533981 -21.09337182 73.30445195 -13.80078125 66.97265625 C-11.67765309 65.3933137 -10.72343637 64.69186662 -8.046875 64.66796875 C-5.6832826 66.19353338 -3.63242139 67.69485989 -1.484375 69.48046875 C-0.33769858 70.4042159 0.80942192 71.32741211 1.95703125 72.25 C2.94574219 73.04792969 3.93445313 73.84585938 4.953125 74.66796875 C6.438125 75.65796875 6.438125 75.65796875 7.953125 76.66796875 C3.80975908 85.99054206 -5.49008174 91.61174445 -14.41015625 95.76953125 C-27.7817471 100.32577702 -49.4847504 99.56404886 -62.5078125 94.2578125 C-69.51260024 90.73938937 -74.99681116 86.6446498 -80.046875 80.66796875 C-80.58828125 80.0646875 -81.1296875 79.46140625 -81.6875 78.83984375 C-93.14588892 65.06662879 -93.35158117 46.6516439 -92.046875 29.66796875 C-91.22300667 24.92668728 -89.43619981 20.83510253 -87.046875 16.66796875 C-86.58925781 15.84683594 -86.13164062 15.02570312 -85.66015625 14.1796875 C-78.47349661 2.46444781 -67.71417991 -6.26427807 -54.359375 -9.76953125 C-35.0332803 -14.30077128 -16.57541552 -10.78667308 0 0 Z " fill="#050505" transform="translate(395.046875,508.33203125)"/>
<path d="M0 0 C0.91869873 0.00757324 1.83739746 0.01514648 2.78393555 0.02294922 C13.28798606 0.27798775 21.86869504 3.06427025 29.5625 10.4375 C31.76475883 12.98511306 33.69185078 15.64032232 35.5625 18.4375 C36.14 19.22125 36.7175 20.005 37.3125 20.8125 C41.66750077 29.95800163 40.82518404 40.50001334 40.7578125 50.3828125 C40.75407517 52.00519637 40.75123161 53.62758253 40.74923706 55.24996948 C40.74165724 59.48810223 40.72205836 63.72609452 40.6998291 67.96417236 C40.67924787 72.30161642 40.67020927 76.63908352 40.66015625 80.9765625 C40.63880624 89.46361282 40.60367125 97.95052267 40.5625 106.4375 C31.9825 106.4375 23.4025 106.4375 14.5625 106.4375 C14.54791748 104.46958496 14.53333496 102.50166992 14.51831055 100.47412109 C14.46658998 93.96005092 14.40128543 87.44622676 14.32678509 80.93237877 C14.28212556 76.98439972 14.24285996 73.03652282 14.21606445 69.08837891 C14.18998701 65.27563174 14.14955389 61.46327855 14.09931374 57.65077591 C14.0826749 56.19883768 14.07114206 54.74683134 14.06488609 53.29481125 C14.05521195 51.25520629 14.02711634 49.21660243 13.99487305 47.17724609 C13.98376999 46.01808685 13.97266693 44.85892761 13.96122742 43.66464233 C13.4349589 39.40523268 12.0010438 36.01798012 9.09765625 32.828125 C1.63014994 27.04427396 -4.01941814 26.5774012 -13.4375 27.4375 C-18.85680691 29.05960547 -22.3029382 32.92004329 -25.4375 37.4375 C-26.47177983 41.25568817 -26.58838208 44.93710221 -26.64282227 48.88012695 C-26.66276749 50.16107742 -26.68271271 51.44202789 -26.70326233 52.76179504 C-26.72024278 54.14978924 -26.73712173 55.53778467 -26.75390625 56.92578125 C-26.77449424 58.35353675 -26.79549118 59.78128641 -26.81687927 61.20903015 C-26.87190953 64.95556895 -26.92140227 68.70216101 -26.96972656 72.4487915 C-27.02008121 76.27645574 -27.07569418 80.10404323 -27.13085938 83.93164062 C-27.23820779 91.43353039 -27.33921757 98.93548498 -27.4375 106.4375 C-36.0175 106.4375 -44.5975 106.4375 -53.4375 106.4375 C-53.4375 72.1175 -53.4375 37.7975 -53.4375 2.4375 C-46.8375 2.4375 -40.2375 2.4375 -33.4375 2.4375 C-33.1075 6.3975 -32.7775 10.3575 -32.4375 14.4375 C-31.756875 13.550625 -31.07625 12.66375 -30.375 11.75 C-22.4001699 2.30494982 -12.02141605 -0.13959068 0 0 Z " fill="#010101" transform="translate(906.4375,497.5625)"/>
<path d="M0 0 C15.18 0 30.36 0 46 0 C46 40.92 46 81.84 46 124 C51.61 124 57.22 124 63 124 C63 130.93 63 137.86 63 145 C42.21 145 21.42 145 0 145 C0 138.07 0 131.14 0 124 C6.6 124 13.2 124 20 124 C20 90.01 20 56.02 20 21 C13.4 21 6.8 21 0 21 C0 14.07 0 7.14 0 0 Z " fill="#050505" transform="translate(636,460)"/>
<path d="M0 0 C9.925429 4.79437276 17.77216354 11.57927101 22.4375 21.6875 C23.5625 24.9375 23.5625 24.9375 23.5625 28.9375 C19.22075558 28.25786523 14.96546481 27.37901215 10.6875 26.375 C8.95886719 25.97087891 8.95886719 25.97087891 7.1953125 25.55859375 C6.32648437 25.35363281 5.45765625 25.14867187 4.5625 24.9375 C5.0575 25.55625 5.5525 26.175 6.0625 26.8125 C7.5625 28.9375 7.5625 28.9375 7.5625 30.9375 C8.14 31.14375 8.7175 31.35 9.3125 31.5625 C12.44598274 33.47740612 13.78364587 35.76097477 15.5625 38.9375 C15.5625 40.2575 15.5625 41.5775 15.5625 42.9375 C14.28052734 43.40929687 14.28052734 43.40929687 12.97265625 43.890625 C11.86792969 44.31859375 10.76320313 44.7465625 9.625 45.1875 C8.52285156 45.60515625 7.42070313 46.0228125 6.28515625 46.453125 C3.41352542 47.64532867 3.41352542 47.64532867 2.68359375 50.109375 C2.64363281 50.71265625 2.60367188 51.3159375 2.5625 51.9375 C3.696875 52.535625 4.83125 53.13375 6 53.75 C9.4375 55.5625 9.4375 55.5625 10.5625 58.9375 C9.7421875 60.99609375 9.7421875 60.99609375 8.4375 63.375 C5.43106273 69.08723082 2.99986071 74.96554748 0.5625 80.9375 C-0.42710806 83.27549833 -1.43101964 85.60670339 -2.4375 87.9375 C-19.07360722 85.74336775 -32.27764332 78.90133768 -42.59375 65.5703125 C-48.70589861 56.84237147 -49.78792086 46.85815363 -49.75 36.4375 C-49.76611328 35.55191406 -49.78222656 34.66632813 -49.79882812 33.75390625 C-49.80527076 24.97904161 -47.73883891 18.00595189 -42.4375 10.9375 C-41.880625 10.091875 -41.32375 9.24625 -40.75 8.375 C-37.47850583 4.92666831 -33.69109056 2.98822017 -29.4375 0.9375 C-28.344375 0.40382813 -27.25125 -0.12984375 -26.125 -0.6796875 C-17.84652209 -3.78411672 -8.18788019 -3.18067654 0 0 Z " fill="#FBFBFB" transform="translate(542.4375,121.0625)"/>
<path d="M0 0 C8.25497042 4.62371752 13.09768678 9.76570059 16.625 18.5 C18.14030042 26.76527501 18.53822752 35.73332711 14.3125 43.25 C8.78262632 50.90919285 2.67504295 56.99453169 -6.6875 59.25 C-17.11164631 60.61013326 -25.91070465 59.56501129 -34.6875 53.25 C-41.13729193 47.44518727 -45.29886766 40.66536873 -45.92578125 31.9296875 C-46.11930454 22.00907278 -45.43495562 13.91197965 -38.375 6.375 C-27.749545 -3.29484663 -13.10632559 -6.43933614 0 0 Z " fill="#FBFBFB" transform="translate(1030.6875,523.75)"/>
<path d="M0 0 C6.92554085 4.95619274 12.84153638 10.87735865 14.68359375 19.45703125 C15.71810639 27.77144769 16.31935138 35.60887688 12 43 C11.65839844 43.61746094 11.31679688 44.23492188 10.96484375 44.87109375 C6.78476433 51.24452283 0.65535108 55.3832101 -6.25 58.4375 C-15.96959984 59.89543998 -24.35926974 59.95305458 -33 55 C-34.33054011 54.3277759 -35.66312072 53.65952711 -37 53 C-37 52.34 -37 51.68 -37 51 C-37.99 50.67 -38.98 50.34 -40 50 C-46.26774015 42.63540533 -48.6613642 34.44389072 -48.34765625 24.80078125 C-47.31237478 16.46036762 -44.04849968 9.77932561 -38 4 C-37.236875 3.2575 -36.47375 2.515 -35.6875 1.75 C-25.57453187 -4.83518855 -10.79434322 -5.47908484 0 0 Z " fill="#FBFBFB" transform="translate(499,524)"/>
<path d="M0 0 C8.25 0 16.5 0 25 0 C25.33 27.39 25.66 54.78 26 83 C31.61 83.33 37.22 83.66 43 84 C43 90.27 43 96.54 43 103 C28.81 103 14.62 103 0 103 C0 69.01 0 35.02 0 0 Z " fill="#000000" transform="translate(578,501)"/>
<path d="M0 0 C5.46396016 4.51370622 10.34948918 10.31788401 11.62890625 17.45703125 C12.46623144 28.47952516 11.36458536 36.04500715 4.44140625 44.70703125 C-0.96644726 50.54611445 -7.51294514 53.96245169 -15.40234375 54.765625 C-24.39614404 55.09985406 -31.03798056 53.85602291 -38.37109375 48.45703125 C-46.26620719 40.78090636 -49.33974294 34.45617311 -49.74609375 23.51953125 C-49.56306853 13.34548245 -45.47910914 7.48693658 -38.37109375 0.45703125 C-27.7892156 -8.47877696 -11.18016729 -7.27539716 0 0 Z " fill="#FAFAFA" transform="translate(778.37109375,527.54296875)"/>
<path d="M0 0 C7.24953184 5.45164794 11.17370475 13.52111425 14 22 C15.18012355 35.19049487 13.82582099 47.83226233 5.36328125 58.52734375 C-5.08119125 70.65923402 -5.08119125 70.65923402 -11.875 71.25 C-12.57625 71.1675 -13.2775 71.085 -14 71 C-14.36351562 69.97261719 -14.72703125 68.94523437 -15.1015625 67.88671875 C-21.23915065 50.84015583 -30.16018501 32.84869926 -43.7265625 20.41796875 C-45 19 -45 19 -45.0625 15.875 C-43.42877488 7.7235715 -37.51803976 2.13998803 -31.1484375 -2.6875 C-22.02700611 -8.25986536 -8.26034214 -5.90885788 0 0 Z " fill="#FAFAFA" transform="translate(749,131)"/>
<path d="M0 0 C12.54 0 25.08 0 38 0 C38 0.66 38 1.32 38 2 C39.3303125 2.0928125 39.3303125 2.0928125 40.6875 2.1875 C46.87312033 3.70472763 49.82175044 8.77859002 53 14 C54.97830117 19.93490351 54.52559546 24.50597386 52 30.125 C48.962547 35.77344412 44.67734622 39.16132689 39 42 C36.08323302 42.08697554 33.18997412 42.1155933 30.2734375 42.09765625 C29.50878174 42.09664917 28.74412598 42.09564209 27.95629883 42.09460449 C25.09585066 42.08936661 22.23542385 42.07540537 19.375 42.0625 C9.784375 42.0315625 9.784375 42.0315625 0 42 C0 28.14 0 14.28 0 0 Z " fill="#F9F9F9" transform="translate(216,485)"/>
<path d="M0 0 C6.91934675 0.4410739 12.04065571 1.99004667 18.25 5 C19.79466211 5.7338428 21.34148491 6.46315805 22.890625 7.1875 C23.56125977 7.51105469 24.23189453 7.83460938 24.92285156 8.16796875 C29.03973811 9.81704601 33.12076453 10.14438744 37.51953125 10.31640625 C38.54111328 10.35830078 39.56269531 10.40019531 40.61523438 10.44335938 C41.67033203 10.48267578 42.72542969 10.52199219 43.8125 10.5625 C44.88693359 10.60568359 45.96136719 10.64886719 47.06835938 10.69335938 C49.71212082 10.79910983 52.3559711 10.90120233 55 11 C54.04347071 18.3158724 51.42848347 23.30894315 45.56640625 27.91015625 C36.29569226 33.34914657 25.43237617 33.70824775 15.09375 31.33203125 C8.49743849 28.74546389 3.67263305 23.84347619 0.125 17.8125 C-1.94492529 12.63768678 -2.26545804 8.57461888 -2 3 C-1.34 2.01 -0.68 1.02 0 0 Z " fill="#F9F9F9" transform="translate(645,277)"/>
<path d="M0 0 C4.9809375 -0.1546875 4.9809375 -0.1546875 10.0625 -0.3125 C11.09511963 -0.35802002 12.12773926 -0.40354004 13.19165039 -0.45043945 C19.82385435 -0.54959944 23.04554124 0.55284619 28 5 C32.24161198 10.47304771 31.72557253 17.39728998 31 24 C29.42312165 29.38342876 26.88926353 33.12506316 22 36 C18.21316265 36.48624176 14.49718933 36.37577457 10.6875 36.25 C5.3971875 36.12625 5.3971875 36.12625 0 36 C0 24.12 0 12.24 0 0 Z " fill="#0A0A0A" transform="translate(723,664)"/>
<path d="M0 0 C4.35287569 3.39736639 7.82208022 6.92972599 9.1484375 12.4296875 C9.5397715 18.41150717 7.75828935 22.25612421 4.36328125 27.08984375 C1.28364601 30.35652842 -1.28051931 31.82358096 -5.7421875 32.50390625 C-16.57198164 32.6816381 -16.57198164 32.6816381 -20.625 29.375 C-24.51092109 25.16525215 -26.57089178 21.26960434 -26.8125 15.5 C-26.56968172 9.70149941 -24.50479659 5.8216383 -20.5625 1.625 C-14.779331 -3.07305414 -6.74794722 -1.96303919 0 0 Z " fill="#060606" transform="translate(598.4375,451)"/>
<path d="M0 0 C0.74620605 0.00572021 1.49241211 0.01144043 2.26123047 0.01733398 C10.74190861 0.29057779 16.51623189 3.2443479 22.6875 9 C26.41150001 13.03944472 27.6875 15.9474219 27.6875 21.5 C9.8675 21.5 -7.9525 21.5 -26.3125 21.5 C-26.3125 14.1909268 -22.49457669 11.01778079 -17.875 5.6875 C-12.40682104 1.01954235 -6.97561559 -0.06229636 0 0 Z " fill="#F9F9F9" transform="translate(357.3125,519.5)"/>
<path d="M0 0 C2.34120336 3.51180505 2.64462964 6.41661601 3.0625 10.5 C3.14411377 11.26884521 3.22572754 12.03769043 3.30981445 12.82983398 C4.03146599 20.2269421 4.3877432 27.63783242 4.6875 35.0625 C4.73592041 36.20332031 4.78434082 37.34414063 4.83422852 38.51953125 C5.05154603 44.80928153 4.87734989 50.76619816 4 57 C-0.35753094 52.8603456 -3.80874782 48.37938202 -7.25 43.46484375 C-9.27435586 40.71298501 -10.50337571 39.15726436 -13.8125 38.109375 C-14.534375 38.07328125 -15.25625 38.0371875 -16 38 C-16.42297363 38.7410498 -16.42297363 38.7410498 -16.85449219 39.49707031 C-18.14643189 41.75188071 -19.4480982 44.00092808 -20.75 46.25 C-21.41515625 47.41595703 -21.41515625 47.41595703 -22.09375 48.60546875 C-24.38689409 52.5510255 -26.51319031 55.9694084 -30 59 C-30.99 58.01 -31.98 57.02 -33 56 C-33.66 56.99 -34.32 57.98 -35 59 C-35 54.84947672 -34.59138777 53.79425346 -32.578125 50.359375 C-32.05307373 49.46154297 -31.52802246 48.56371094 -30.98706055 47.63867188 C-30.41383057 46.68541016 -29.84060059 45.73214844 -29.25 44.75 C-28.66452393 43.76580078 -28.07904785 42.78160156 -27.47583008 41.76757812 C-23.41545254 35.05433324 -19.01799065 28.76457305 -14.19287109 22.58618164 C-10.07121859 17.26151576 -6.74463505 11.69849759 -3.5234375 5.79296875 C-2 3 -2 3 0 0 Z " fill="#F3F3F3" transform="translate(697,316)"/>
<path d="M0 0 C3.83625 -0.103125 7.6725 -0.20625 11.625 -0.3125 C13.42251709 -0.38078003 13.42251709 -0.38078003 15.25634766 -0.45043945 C24.07987965 -0.56527131 24.07987965 -0.56527131 27.734375 2.23828125 C30.66675611 5.81275271 30.77038144 7.41966087 30.4609375 11.84765625 C29.7698892 15.07450043 28.40800277 16.79266413 26 19 C24.68141639 19.69538442 23.34991469 20.36758198 22 21 C22.54269531 21.59167969 23.08539062 22.18335938 23.64453125 22.79296875 C24.35996094 23.58316406 25.07539062 24.37335937 25.8125 25.1875 C26.52019531 25.96480469 27.22789062 26.74210938 27.95703125 27.54296875 C33 33.60803059 33 33.60803059 33 37 C29.71519683 37.90856258 27.25954259 38.07668149 24 37 C21.22587239 33.86119834 19.10211361 30.61292108 16.9453125 27.0390625 C15.17641931 23.82747297 15.17641931 23.82747297 12 22 C10.35 21.67 8.7 21.34 7 21 C7 25.95 7 30.9 7 36 C4.69 36 2.38 36 0 36 C0 24.12 0 12.24 0 0 Z " fill="#0D0D0D" transform="translate(910,664)"/>
<path d="M0 0 C8 0 8 0 10.08569336 1.89599609 C10.58206299 2.76305176 11.07843262 3.63010742 11.58984375 4.5234375 C12.14607422 5.461875 12.70230469 6.4003125 13.27539062 7.3671875 C13.82388672 8.35976563 14.37238281 9.35234375 14.9375 10.375 C15.80084961 11.85226562 15.80084961 11.85226562 16.68164062 13.359375 C18.52885128 16.53596811 20.35638544 19.71277087 22 23 C22.33 15.41 22.66 7.82 23 0 C25.31 0 27.62 0 30 0 C30 12.21 30 24.42 30 37 C22 37 22 37 19.80664062 34.98046875 C19.26201172 34.05878906 18.71738281 33.13710938 18.15625 32.1875 C17.55039062 31.19492187 16.94453125 30.20234375 16.3203125 29.1796875 C15.71960938 28.13039063 15.11890625 27.08109375 14.5 26 C13.55253906 24.42605469 13.55253906 24.42605469 12.5859375 22.8203125 C11.03117148 20.22903581 9.5120829 17.61641311 8 15 C7.67 22.26 7.34 29.52 7 37 C4.69 37 2.38 37 0 37 C0 24.79 0 12.58 0 0 Z " fill="#111111" transform="translate(392,664)"/>
<path d="M0 0 C2.97 0 5.94 0 9 0 C9.37511719 1.02738281 9.75023437 2.05476562 10.13671875 3.11328125 C12.47382099 9.45870968 14.7989567 15.75445855 17.6875 21.875 C19.99742294 26.78544909 21.60270196 31.76297239 23 37 C20.36 37 17.72 37 15 37 C12 31.375 12 31.375 12 28 C7.05 28 2.1 28 -3 28 C-3.99 30.97 -4.98 33.94 -6 37 C-8.64 37 -11.28 37 -14 37 C-11.14898139 24.2800708 -5.34595532 11.83747248 0 0 Z " fill="#101010" transform="translate(820,664)"/>
<path d="M0 0 C2.97 0 5.94 0 9 0 C9.28198242 0.71019287 9.56396484 1.42038574 9.85449219 2.15209961 C11.15112204 5.41464757 12.45054134 8.67607777 13.75 11.9375 C14.1934375 13.05447266 14.636875 14.17144531 15.09375 15.32226562 C17.36511209 21.01737205 19.68083922 26.65690315 22.30957031 32.19750977 C23 34 23 34 23 37 C20.03 37 17.06 37 14 37 C13.34 34.03 12.68 31.06 12 28 C7.05 28.33 2.1 28.66 -3 29 C-3.66 31.64 -4.32 34.28 -5 37 C-7.97 37 -10.94 37 -14 37 C-11.55513905 29.41445459 -8.75140939 21.99391505 -5.875 14.5625 C-5.41996094 13.37978516 -4.96492187 12.19707031 -4.49609375 10.97851562 C-1.14074248 2.28148496 -1.14074248 2.28148496 0 0 Z " fill="#111111" transform="translate(544,664)"/>
<path d="M0 0 C5.56875 -0.1546875 5.56875 -0.1546875 11.25 -0.3125 C12.99651855 -0.38078003 12.99651855 -0.38078003 14.77832031 -0.45043945 C22.36641306 -0.55299913 22.36641306 -0.55299913 25.671875 2.33203125 C27.91741571 6.84292627 28.73183736 10.99423247 28 16 C26.20636089 18.8100346 24.98119065 20.50940468 22 22 C19.44842345 22.0716735 16.92527029 22.09308442 14.375 22.0625 C13.66859375 22.05798828 12.9621875 22.05347656 12.234375 22.04882812 C10.48954725 22.03703875 8.744763 22.01910324 7 22 C7 26.62 7 31.24 7 36 C4.69 36 2.38 36 0 36 C0 24.12 0 12.24 0 0 Z " fill="#080808" transform="translate(619,664)"/>
<path d="M0 0 C9.24 0 18.48 0 28 0 C28 1.98 28 3.96 28 6 C21.07 6 14.14 6 7 6 C7 8.64 7 11.28 7 14 C13.27 14 19.54 14 26 14 C26 15.98 26 17.96 26 20 C19.73 20 13.46 20 7 20 C7 23.63 7 27.26 7 31 C13.93 31 20.86 31 28 31 C28 32.98 28 34.96 28 37 C18.76 37 9.52 37 0 37 C0 24.79 0 12.58 0 0 Z " fill="#0F0F0F" transform="translate(671,664)"/>
<path d="M0 0 C8.91 0 17.82 0 27 0 C27 1.98 27 3.96 27 6 C20.4 6 13.8 6 7 6 C7 8.97 7 11.94 7 15 C12.94 15 18.88 15 25 15 C25 16.65 25 18.3 25 20 C19.06 20 13.12 20 7 20 C7 23.63 7 27.26 7 31 C13.93 31 20.86 31 28 31 C28 32.98 28 34.96 28 37 C18.76 37 9.52 37 0 37 C0 24.79 0 12.58 0 0 Z " fill="#090909" transform="translate(997,664)"/>
<path d="M0 0 C2.74417296 3.1867815 3.9375 5.00874099 3.9375 9.25 C1.6275 9.58 -0.6825 9.91 -3.0625 10.25 C-3.5265625 9.26 -3.5265625 9.26 -4 8.25 C-6.86918103 5.46776385 -9.04166274 5.77027783 -12.90625 5.71875 C-15.1728139 6.09534868 -15.1728139 6.09534868 -16.81640625 7.84765625 C-18.48722064 11.06881878 -18.4961396 13.57030396 -18.5 17.1875 C-18.51933594 18.39277344 -18.53867187 19.59804688 -18.55859375 20.83984375 C-17.97950981 24.82047585 -16.93074089 26.47511957 -14.0625 29.25 C-10.58462326 29.82964612 -8.82012811 29.68000514 -5.75 27.9375 C-3.81560083 26.25465847 -3.81560083 26.25465847 -3.0625 23.25 C-0.4225 23.58 2.2175 23.91 4.9375 24.25 C3.90449381 29.07069557 2.07005516 32.08363554 -1.73828125 35.1015625 C-6.63868923 37.52294056 -11.79484335 37.23851491 -17.0625 36.25 C-21.65672324 34.01560815 -24.89548781 30.21214586 -26.62890625 25.3671875 C-28.12874722 18.0436397 -28.00278045 10.6857914 -24.0625 4.25 C-18.01234186 -2.2407859 -7.94261872 -4.53863927 0 0 Z " fill="#141414" transform="translate(282.0625,664.75)"/>
<path d="M0 0 C5.47344265 0.3774788 9.21127647 1.80002715 13.0625 5.75 C14.625 8.25 14.625 8.25 14.625 11.25 C12.315 11.58 10.005 11.91 7.625 12.25 C7.1609375 11.26 7.1609375 11.26 6.6875 10.25 C3.81502305 7.46456781 1.64867667 7.80996054 -2.21875 7.81640625 C-4.86699194 8.34893316 -5.73986037 9.13129773 -7.375 11.25 C-9.14942429 16.57327288 -9.13821486 22.02325256 -7 27.25 C-5.70610623 30.32338953 -5.70610623 30.32338953 -3.375 31.25 C-0.4592309 31.66702122 -0.4592309 31.66702122 2.625 31.25 C4.92775556 29.3829009 6.30323871 27.89352259 7.625 25.25 C9.935 25.58 12.245 25.91 14.625 26.25 C14.52869998 30.29460104 13.64356597 32.75389455 10.875 35.625 C6.51561683 39.01363393 2.17847148 39.15654358 -3.203125 38.90234375 C-8.21885426 37.87078367 -11.44868054 35.41290066 -14.375 31.25 C-17.33549779 24.17986384 -17.65073251 16.01005371 -15.1875 8.75 C-10.20352143 1.87554681 -10.20352143 1.87554681 -6 0.4375 C-3.9997863 0.29462759 -1.99983079 0.14813561 0 0 Z " fill="#0E0E0E" transform="translate(494.375,662.75)"/>
<path d="M0 0 C2.3125 1.6875 2.3125 1.6875 4.3125 4.6875 C3.72758789 4.67178955 3.14267578 4.6560791 2.54003906 4.63989258 C-0.11904164 4.57739733 -2.77796764 4.53846431 -5.4375 4.5 C-6.35789062 4.47486328 -7.27828125 4.44972656 -8.2265625 4.42382812 C-9.11601563 4.41416016 -10.00546875 4.40449219 -10.921875 4.39453125 C-11.73881836 4.3788208 -12.55576172 4.36311035 -13.39746094 4.34692383 C-16.20543995 4.76452838 -17.51195674 5.92328674 -19.6875 7.6875 C-20.3475 7.6875 -21.0075 7.6875 -21.6875 7.6875 C-25.8483412 15.76661075 -27.12342068 22.7850617 -26.98046875 31.84765625 C-26.97622391 32.87813583 -26.97197906 33.90861542 -26.96760559 34.97032166 C-26.95094216 38.23049115 -26.91331301 41.49002039 -26.875 44.75 C-26.85993722 46.9732983 -26.84625162 49.19660639 -26.83398438 51.41992188 C-26.80107924 56.84266281 -26.75100457 62.26503564 -26.6875 67.6875 C-27.6775 67.6875 -28.6675 67.6875 -29.6875 67.6875 C-34.11708381 62.75793144 -34.27812194 58.48666278 -34.21875 52.046875 C-34.2225769 51.12465149 -34.22640381 50.20242798 -34.23034668 49.2522583 C-34.23306092 47.30569362 -34.22573396 45.35909217 -34.20898438 43.41259766 C-34.18766549 40.4604169 -34.20875167 37.51069686 -34.234375 34.55859375 C-34.23172973 32.65884887 -34.22660064 30.7591055 -34.21875 28.859375 C-34.22684692 27.98923767 -34.23494385 27.11910034 -34.24328613 26.22259521 C-34.11720107 17.81497757 -31.64641916 9.82699246 -25.6875 3.6875 C-18.65562712 -2.64118559 -8.8263481 -3.14158153 0 0 Z " fill="#F4F4F4" transform="translate(701.6875,205.3125)"/>
<path d="M0 0 C9.9 0 19.8 0 30 0 C30 1.98 30 3.96 30 6 C26.37 6 22.74 6 19 6 C19 16.23 19 26.46 19 37 C16.36 37 13.72 37 11 37 C11 26.77 11 16.54 11 6 C7.37 6 3.74 6 0 6 C0 4.02 0 2.04 0 0 Z " fill="#121212" transform="translate(858,664)"/>
<path d="M0 0 C2.64 0 5.28 0 8 0 C8 9.9 8 19.8 8 30 C13.94 30 19.88 30 26 30 C26 32.31 26 34.62 26 37 C17.42 37 8.84 37 0 37 C0 24.79 0 12.58 0 0 Z " fill="#191919" transform="translate(311,664)"/>
<path d="M0 0 C3.28933329 1.73874028 6.31178909 3.62357818 8 7 C8.39771327 11.77255923 8.47453429 14.08482672 6.25 18.375 C3.05000967 22.10832206 1.47434932 22.80888064 -3.375 23.4375 C-8.03438085 22.87516093 -9.78879806 21.36056016 -13 18 C-14.72052464 15.08258865 -15.00946957 13.44506969 -14.9375 10.0625 C-13.69939974 6.01803914 -11.91497613 4.05717009 -9 1 C-5.84017111 -0.57991444 -3.49944139 -0.34420735 0 0 Z " fill="#F2F2F2" transform="translate(633,209)"/>
<path d="M0 0 C11.42307692 0 11.42307692 0 15 3 C17.19681819 7.39363637 16.32589637 13.20466775 16 18 C14.75 21.75 14.75 21.75 13 24 C9 25 9 25 0 25 C0 16.75 0 8.5 0 0 Z " fill="#ECECEC" transform="translate(730,670)"/>
<path d="M0 0 C2.64 0 5.28 0 8 0 C8 12.21 8 24.42 8 37 C5.36 37 2.72 37 0 37 C0 24.79 0 12.58 0 0 Z " fill="#171717" transform="translate(777,664)"/>
<path d="M0 0 C2.31 0 4.62 0 7 0 C7 12.21 7 24.42 7 37 C4.69 37 2.38 37 0 37 C0 24.79 0 12.58 0 0 Z " fill="#090909" transform="translate(965,664)"/>
<path d="M0 0 C2.31 0 4.62 0 7 0 C7 12.21 7 24.42 7 37 C4.69 37 2.38 37 0 37 C0 24.79 0 12.58 0 0 Z " fill="#050505" transform="translate(447,664)"/>
<path d="M0 0 C2.31 0 4.62 0 7 0 C7 11.88 7 23.76 7 36 C4.69 36 2.38 36 0 36 C0 24.12 0 12.24 0 0 Z " fill="#030303" transform="translate(360,664)"/>
<path d="M0 0 C3 0.6875 3 0.6875 5.375 2.6875 C7.40151004 6.42874931 7.83594114 9.56405955 7 13.6875 C5.87337436 15.98445658 4.61362194 17.67047258 3 19.6875 C-0.36187774 19.40734352 -1.76318238 18.91116109 -4.25 16.5625 C-6.38404081 13.05657582 -7 10.79678461 -7 6.6875 C-5.19137057 2.70851526 -4.33690129 0.99387321 0 0 Z " fill="#EEEEEE" transform="translate(724,208.3125)"/>
<path d="M0 0 C2.3125 1.6875 2.3125 1.6875 4.3125 4.6875 C3.73282471 4.67178955 3.15314941 4.6560791 2.5559082 4.63989258 C-0.08762739 4.57727209 -2.73100655 4.53842482 -5.375 4.5 C-6.28701172 4.47486328 -7.19902344 4.44972656 -8.13867188 4.42382812 C-13.28708157 4.36766366 -16.38464578 4.57425842 -20.6875 7.6875 C-22.875 6.9375 -22.875 6.9375 -24.6875 5.6875 C-25.3475 5.3575 -26.0075 5.0275 -26.6875 4.6875 C-18.99903554 -2.12727532 -9.99034318 -3.55588486 0 0 Z " fill="#E6E6E6" transform="translate(701.6875,205.3125)"/>
<path d="M0 0 C9.625 -0.25 9.625 -0.25 13 2 C13.5 4.9375 13.5 4.9375 13 8 C10.06011927 10.75613818 7.57695599 11.16677466 3.6875 11.1875 C1.8621875 11.0946875 1.8621875 11.0946875 0 11 C0 7.37 0 3.74 0 0 Z " fill="#E4E4E4" transform="translate(626,670)"/>
<path d="M0 0 C2.64 0.33 5.28 0.66 8 1 C7.00434709 5.28130752 5.59295662 8.33507395 2.0625 11.09765625 C-2.33226247 13.02036483 -7.31161538 12.34138723 -12 12 C-12.33 11.34 -12.66 10.68 -13 10 C-12.34 10 -11.68 10 -11 10 C-10.67 9.01 -10.34 8.02 -10 7 C-8.88625 6.71125 -7.7725 6.4225 -6.625 6.125 C-2.8563353 5.34779594 -2.8563353 5.34779594 -1.0625 2.375 C-0.711875 1.59125 -0.36125 0.8075 0 0 Z " fill="#0C0C0C" transform="translate(279,688)"/>
<path d="M0 0 C1.95803507 -0.05389087 3.91648909 -0.09274217 5.875 -0.125 C7.51082031 -0.15980469 7.51082031 -0.15980469 9.1796875 -0.1953125 C12 0 12 0 14 2 C14.25 4.5 14.25 4.5 14 7 C12 9 12 9 9.1796875 9.1953125 C8.08914063 9.17210937 6.99859375 9.14890625 5.875 9.125 C4.77929688 9.10695313 3.68359375 9.08890625 2.5546875 9.0703125 C1.71164062 9.04710937 0.86859375 9.02390625 0 9 C0 6.03 0 3.06 0 0 Z " fill="#F5F5F5" transform="translate(918,670)"/>
<path d="M0 0 C2.58941855 0.38112654 3.77857706 0.77327986 5.6328125 2.671875 C8.25516041 6.32394067 10.6424667 9.65589343 12 14 C8.87266666 14.49056209 6.10851104 14.67351073 3 14 C0.40683792 11.7139229 -0.99532324 9.29770372 -2 6 C-1.3125 2.5 -1.3125 2.5 0 0 Z " fill="#151515" transform="translate(931,687)"/>
<path d="M0 0 C5.48001528 -0.33551114 9.16658354 0.35530043 14 3 C18 7.1025641 18 7.1025641 18 11 C15.69 11.33 13.38 11.66 11 12 C10.67 11.360625 10.34 10.72125 10 10.0625 C6.97670168 6.9447236 4.26343276 7.27956936 0 7 C1.32 6.34 2.64 5.68 4 5 C4 4.01 4 3.02 4 2 C2.68 1.34 1.36 0.68 0 0 Z " fill="#141414" transform="translate(491,663)"/>
<path d="M0 0 C3.43241953 0.22882797 5.51278962 0.6444681 8.3125 2.6875 C10.33999434 5.46591817 10.69168574 7.60854311 11 11 C6.03595477 10.52723379 2.80820506 9.26417577 -1 6 C-1.4375 3.3125 -1.4375 3.3125 -1 1 C-0.67 0.67 -0.34 0.34 0 0 Z " fill="#EFEFEF" transform="translate(681,266)"/>
<path d="M0 0 C3.05936637 3.75467691 5 7.08113061 5 12 C2.03 12 -0.94 12 -4 12 C-3.5317879 7.22423661 -2.75668002 3.95523655 0 0 Z " fill="#E5E5E5" transform="translate(548,674)"/>
<path d="M0 0 C3.67033927 3.27708863 5.69281189 6.71522208 8 11 C5.54642891 12.15863079 3.60964304 13 0.875 13 C-2.04778827 11.44117959 -2.74193253 8.95645856 -4 6 C-3.34 6 -2.68 6 -2 6 C-0.99983813 3.99967627 -0.50603992 2.16874252 0 0 Z " fill="#EAEAEA" transform="translate(642,366)"/>
<path d="M0 0 C2.46301423 2.46301423 2.76766521 4.27360036 3.625 7.625 C3.88539063 8.62789062 4.14578125 9.63078125 4.4140625 10.6640625 C4.60742188 11.43492187 4.80078125 12.20578125 5 13 C2.03 13 -0.94 13 -4 13 C-3.71682074 11.39431334 -3.42312209 9.79047953 -3.125 8.1875 C-2.96257813 7.29417969 -2.80015625 6.40085937 -2.6328125 5.48046875 C-2 3 -2 3 0 0 Z " fill="#E5E5E5" transform="translate(824,673)"/>
<path d="M0 0 C0.66 0 1.32 0 2 0 C2 0.66 2 1.32 2 2 C2.99 1.67 3.98 1.34 5 1 C8 5.75 8 5.75 8 8 C5.36 8 2.72 8 0 8 C-0.38063221 5.6739143 -0.71269945 3.33944736 -1 1 C-0.67 0.67 -0.34 0.34 0 0 Z " fill="#161616" transform="translate(835,693)"/>
<path d="M0 0 C1.79158489 -0.02696365 3.58328473 -0.04637917 5.375 -0.0625 C6.37273438 -0.07410156 7.37046875 -0.08570313 8.3984375 -0.09765625 C11 0 11 0 13 1 C12.67 1.99 12.34 2.98 12 4 C8.04 4 4.08 4 0 4 C0 2.68 0 1.36 0 0 Z " fill="#F9F9F9" transform="translate(687,204)"/>
<path d="M0 0 C-0.47356123 4.26205106 -2.84698192 6.28693793 -6 9 C-8.3125 9.8125 -8.3125 9.8125 -10 10 C-8.41650438 4.96160484 -5.719924 0 0 0 Z " fill="#DADADA" transform="translate(714,267)"/>
<path d="M0 0 C3.67033927 3.27708863 5.69281189 6.71522208 8 11 C3.69235185 9.43358249 -0.06171464 7.31663844 -4 5 C-3.01 4.67 -2.02 4.34 -1 4 C-0.26676204 1.98491642 -0.26676204 1.98491642 0 0 Z " fill="#262626" transform="translate(634,367)"/>
<path d="M0 0 C1.65 0 3.3 0 5 0 C5.33 2.64 5.66 5.28 6 8 C5.01 8 4.02 8 3 8 C0.19744677 5.0936485 0 4.21174952 0 0 Z " fill="#EEEEEE" transform="translate(669,265)"/>
<path d="M0 0 C0.33 0 0.66 0 1 0 C1 1.65 1 3.3 1 5 C2.03060547 4.96519531 2.03060547 4.96519531 3.08203125 4.9296875 C4.43361328 4.90261719 4.43361328 4.90261719 5.8125 4.875 C6.70582031 4.85179687 7.59914063 4.82859375 8.51953125 4.8046875 C11 5 11 5 14 7 C9.38 7 4.76 7 0 7 C-1 3 -1 3 0 0 Z " fill="#4E4E4E" transform="translate(458,143)"/>
<path d="M0 0 C0.33 0.99 0.66 1.98 1 3 C0.43410156 3.55429687 -0.13179687 4.10859375 -0.71484375 4.6796875 C-1.44832031 5.40414062 -2.18179687 6.12859375 -2.9375 6.875 C-3.66839844 7.59429688 -4.39929687 8.31359375 -5.15234375 9.0546875 C-7.05667999 10.87027192 -7.05667999 10.87027192 -8 13 C-9.98 13 -11.96 13 -14 13 C-13 11 -13 11 -10.375 9.875 C-5.8904575 7.3835875 -3.18015414 3.96107957 0 0 Z " fill="#313131" transform="translate(1043,568)"/>
<path d="M0 0 C0 3 0 3 -1 6 C-1.99 6 -2.98 6 -4 6 C-4 6.66 -4 7.32 -4 8 C-5.32 8.33 -6.64 8.66 -8 9 C-8 8.01 -8 7.02 -8 6 C-6.25 4.39453125 -6.25 4.39453125 -4 2.8125 C-3.2575 2.28269531 -2.515 1.75289063 -1.75 1.20703125 C-1.1725 0.80871094 -0.595 0.41039062 0 0 Z " fill="#E4E4E4" transform="translate(675,372)"/>
<path d="M0 0 C4.875 2.75 4.875 2.75 6 5 C0.72 4.67 -4.56 4.34 -10 4 C-10 3.67 -10 3.34 -10 3 C-9.36191406 2.95101562 -8.72382812 2.90203125 -8.06640625 2.8515625 C-7.24011719 2.77679688 -6.41382813 2.70203125 -5.5625 2.625 C-4.73878906 2.55539063 -3.91507813 2.48578125 -3.06640625 2.4140625 C-2.38449219 2.27742187 -1.70257812 2.14078125 -1 2 C-0.67 1.34 -0.34 0.68 0 0 Z " fill="#B1B1B1" transform="translate(700,205)"/>
<path d="M0 0 C1.65 0 3.3 0 5 0 C5.66 1.32 6.32 2.64 7 4 C5.02 4.33 3.04 4.66 1 5 C0.67 3.35 0.34 1.7 0 0 Z " fill="#030303" transform="translate(490,664)"/>
<path d="M0 0 C0.66 0.99 1.32 1.98 2 3 C0.73113036 4.12721436 -0.54017562 5.25168658 -1.8125 6.375 C-2.52019531 7.00148438 -3.22789062 7.62796875 -3.95703125 8.2734375 C-6 10 -6 10 -9 12 C-7.55575365 8.76138697 -5.74227753 6.38030837 -3.375 3.75 C-2.74335937 3.04359375 -2.11171875 2.3371875 -1.4609375 1.609375 C-0.97882812 1.07828125 -0.49671875 0.5471875 0 0 Z " fill="#D1D1D1" transform="translate(622,370)"/>
<path d="M0 0 C3.63 0.33 7.26 0.66 11 1 C11 1.33 11 1.66 11 2 C8.69 2 6.38 2 4 2 C4.33 3.32 4.66 4.64 5 6 C4.34 6 3.68 6 3 6 C0 2.53846154 0 2.53846154 0 0 Z " fill="#3F3F3F" transform="translate(547,146)"/>
<path d="M0 0 C0.66 0.33 1.32 0.66 2 1 C2.625 4.0625 2.625 4.0625 3 7 C0.03 6.505 0.03 6.505 -3 6 C-2.01 4.02 -1.02 2.04 0 0 Z " fill="#CFCFCF" transform="translate(689,270)"/>
<path d="M0 0 C2.1519437 3.22791555 2.20086443 4.28400809 2 8 C1.67 7.34 1.34 6.68 1 6 C-0.32 6.33 -1.64 6.66 -3 7 C-1.125 1.125 -1.125 1.125 0 0 Z " fill="#BFBFBF" transform="translate(697,316)"/>
<path d="M0 0 C0.66 0 1.32 0 2 0 C2.33 1.32 2.66 2.64 3 4 C0.02009661 5.24162641 -2.8614943 6.25561083 -6 7 C-5.04882866 5.8274869 -4.08882991 4.66212985 -3.125 3.5 C-2.59132813 2.8503125 -2.05765625 2.200625 -1.5078125 1.53125 C-0.76144531 0.77328125 -0.76144531 0.77328125 0 0 Z " fill="#D2D2D2" transform="translate(518,588)"/>
<path d="M0 0 C-0.33 1.65 -0.66 3.3 -1 5 C-1.99 4.67 -2.98 4.34 -4 4 C-4 4.66 -4 5.32 -4 6 C-4.66 5.67 -5.32 5.34 -6 5 C-5.67 4.34 -5.34 3.68 -5 3 C-5.66 2.67 -6.32 2.34 -7 2 C-2.25 0 -2.25 0 0 0 Z " fill="#CECECE" transform="translate(531,231)"/>
<path d="M0 0 C0.33 0.99 0.66 1.98 1 3 C-3.625 7.875 -3.625 7.875 -7 9 C-7.33 8.34 -7.66 7.68 -8 7 C-7.05125 6.401875 -6.1025 5.80375 -5.125 5.1875 C-1.86035803 3.18437474 -1.86035803 3.18437474 0 0 Z " fill="#D4D4D4" transform="translate(604,475)"/>
<path d="M0 0 C0.66 0.99 1.32 1.98 2 3 C1.34 3 0.68 3 0 3 C-0.0825 3.61875 -0.165 4.2375 -0.25 4.875 C-1 7 -1 7 -3.0625 8.25 C-3.701875 8.4975 -4.34125 8.745 -5 9 C-3.7508258 5.54074837 -2.32472205 2.85306797 0 0 Z " fill="#242424" transform="translate(468,127)"/>
<path d="M0 0 C0.66 0.33 1.32 0.66 2 1 C1.67 3.31 1.34 5.62 1 8 C-1.475 7.01 -1.475 7.01 -4 6 C-3.525625 5.566875 -3.05125 5.13375 -2.5625 4.6875 C-0.76313043 2.97690387 -0.76313043 2.97690387 0 0 Z " fill="#D7D7D7" transform="translate(790,501)"/>
<path d="M0 0 C0 3 0 3 -1.75 5.25 C-2.86375 6.11625 -2.86375 6.11625 -4 7 C-5.32 6.67 -6.64 6.34 -8 6 C-5.36 4.02 -2.72 2.04 0 0 Z " fill="#2C2C2C" transform="translate(748,195)"/>
<path d="M0 0 C0.66 0.33 1.32 0.66 2 1 C0.6875 3.5 0.6875 3.5 -1 6 C-1.99 6 -2.98 6 -4 6 C-3.6875 4.125 -3.6875 4.125 -3 2 C-2.01 1.34 -1.02 0.68 0 0 Z " fill="#353535" transform="translate(548,167)"/>
<path d="M0 0 C0.66 0 1.32 0 2 0 C0.55746343 3.36591866 -1.33264727 5.51047079 -4 8 C-4.66 7.67 -5.32 7.34 -6 7 C-5.04882866 5.8274869 -4.08882991 4.66212985 -3.125 3.5 C-2.59132813 2.8503125 -2.05765625 2.200625 -1.5078125 1.53125 C-0.76144531 0.77328125 -0.76144531 0.77328125 0 0 Z " fill="#DADADA" transform="translate(289,533)"/>
</svg>
