<svg width="219" height="50" viewBox="0 0 219 50" fill="none" xmlns="http://www.w3.org/2000/svg">
<g clip-path="url(#clip0_29454_261)">
<path fill-rule="evenodd" clip-rule="evenodd" d="M2.58032 17.6437C4.37515 15.7108 6.89374 14.6125 9.53144 14.6125H17.4022C21.4565 14.6125 25.3978 15.9485 28.6164 18.4138L28.8952 18.6274C30.5924 19.9274 32.0232 21.5424 33.1092 23.384C34.6193 25.9445 35.4157 28.8629 35.4157 31.8356V40.7635C35.4157 43.2998 34.3728 45.7245 32.5316 47.4688C29.0667 50.7514 23.6716 50.8535 20.0851 47.7043L19.9993 47.6289C17.975 45.8514 16.8145 43.2881 16.8145 40.5942V33.4699H9.36829C6.88367 33.4699 4.50081 32.4828 2.74392 30.7259C-0.819219 27.1627 -0.925539 21.4193 2.50327 17.7267L2.58032 17.6437ZM5.61611 20.6172L5.69316 20.5342C6.68423 19.4669 8.07495 18.8604 9.53144 18.8604H17.4022C20.5226 18.8604 23.5561 19.8887 26.0334 21.7862L26.3121 21.9997C27.576 22.9679 28.6415 24.1705 29.4502 25.5419C30.5747 27.4487 31.1678 29.6219 31.1678 31.8356V40.7635C31.1678 42.1333 30.6046 43.4429 29.6101 44.385C27.7388 46.1579 24.8249 46.213 22.8879 44.5121L22.8021 44.4368C21.6963 43.4659 21.0624 42.0657 21.0624 40.5942V31.6982C21.0624 30.3306 19.9537 29.2219 18.5861 29.2219H9.36829C8.01028 29.2219 6.70789 28.6824 5.74764 27.7221C3.80015 25.7746 3.74204 22.6355 5.61611 20.6172Z" fill="white"/>
<path fill-rule="evenodd" clip-rule="evenodd" d="M49.6004 32.2734L49.5234 32.3564C47.7286 34.2893 45.21 35.3876 42.5723 35.3876H34.7015C30.6472 35.3876 26.7059 34.0516 23.4873 31.5862L26.0704 28.2139C28.5476 30.1114 31.5811 31.1397 34.7015 31.1397H42.5723C44.0288 31.1397 45.4195 30.5332 46.4106 29.4659L46.4876 29.3829C48.3617 27.3646 48.3036 24.2255 46.3561 22.2779C45.3958 21.3177 44.0934 20.7782 42.7354 20.7782H33.5176C32.15 20.7782 31.0413 19.6695 31.0413 18.3019V9.40601C31.0413 7.93445 30.4074 6.53422 29.3016 5.56329L29.2159 5.48795C27.2788 3.7871 24.3649 3.84222 22.4936 5.6151C21.4992 6.5572 20.9359 7.86677 20.9359 9.2366V18.1644C20.9359 20.3781 21.529 22.5514 22.6535 24.4582C23.4622 25.8296 24.5277 27.0322 25.7916 28.0003L26.0704 28.2139L23.4873 31.5862L23.2086 31.3727C21.5113 30.0727 20.0805 28.4577 18.9945 26.6161C17.4844 24.0556 16.688 21.1371 16.688 18.1644V9.2366C16.688 6.7003 17.7309 4.2756 19.5721 2.53127C23.037 -0.751283 28.4321 -0.853334 32.0186 2.29586L32.1044 2.37119C32.1043 2.37118 32.1044 2.3712 32.1044 2.37119C34.1286 4.14866 35.2892 6.71207 35.2892 9.40601V16.5302H42.7354C45.22 16.5302 47.6029 17.5172 49.3598 19.2742C52.9229 22.8374 53.0293 28.5808 49.6004 32.2734Z" fill="white"/>
<path d="M31.168 30.6276L35.2884 31.1864V35.6572H31.168V30.6276Z" fill="white"/>
<path d="M80.0134 11.7201C80.0134 12.9401 79.7334 14.0601 79.1734 15.0801C78.6134 16.0801 77.7534 16.8901 76.5934 17.5101C75.4334 18.1301 73.9934 18.4401 72.2734 18.4401H69.0934V26.0001H63.9634V4.9401H72.2734C73.9534 4.9401 75.3734 5.2301 76.5334 5.81009C77.6934 6.39009 78.5634 7.19009 79.1434 8.21009C79.7234 9.23009 80.0134 10.4001 80.0134 11.7201ZM71.8834 14.3601C72.8634 14.3601 73.5934 14.1301 74.0734 13.6701C74.5534 13.2101 74.7934 12.5601 74.7934 11.7201C74.7934 10.8801 74.5534 10.2301 74.0734 9.7701C73.5934 9.3101 72.8634 9.0801 71.8834 9.0801H69.0934V14.3601H71.8834ZM98.4641 17.3601C98.4641 17.8401 98.4341 18.3401 98.3741 18.8601H86.7641C86.8441 19.9001 87.1741 20.7001 87.7541 21.2601C88.3541 21.8001 89.0841 22.0701 89.9441 22.0701C91.2241 22.0701 92.1141 21.5301 92.6141 20.4501H98.0741C97.7941 21.5501 97.2841 22.5401 96.5441 23.4201C95.8241 24.3001 94.9141 24.9901 93.8141 25.4901C92.7141 25.9901 91.4841 26.2401 90.1241 26.2401C88.4841 26.2401 87.0241 25.8901 85.7441 25.1901C84.4641 24.4901 83.4641 23.4901 82.7441 22.1901C82.0241 20.8901 81.6641 19.3701 81.6641 17.6301C81.6641 15.8901 82.0141 14.3701 82.7141 13.0701C83.4341 11.7701 84.4341 10.7701 85.7141 10.0701C86.9941 9.37009 88.4641 9.02009 90.1241 9.02009C91.7441 9.02009 93.1841 9.36009 94.4441 10.0401C95.7041 10.7201 96.6841 11.6901 97.3841 12.9501C98.1041 14.2101 98.4641 15.6801 98.4641 17.3601ZM93.2141 16.0101C93.2141 15.1301 92.9141 14.4301 92.3141 13.9101C91.7141 13.3901 90.9641 13.1301 90.0641 13.1301C89.2041 13.1301 88.4741 13.3801 87.8741 13.8801C87.2941 14.3801 86.9341 15.0901 86.7941 16.0101H93.2141ZM100.151 17.6001C100.151 15.8801 100.471 14.3701 101.111 13.0701C101.771 11.7701 102.661 10.7701 103.781 10.0701C104.901 9.37009 106.151 9.02009 107.531 9.02009C108.631 9.02009 109.631 9.25009 110.531 9.71009C111.451 10.1701 112.171 10.7901 112.691 11.5701V3.8001H117.821V26.0001H112.691V23.6001C112.211 24.4001 111.521 25.0401 110.621 25.5201C109.741 26.0001 108.711 26.2401 107.531 26.2401C106.151 26.2401 104.901 25.8901 103.781 25.1901C102.661 24.4701 101.771 23.4601 101.111 22.1601C100.471 20.8401 100.151 19.3201 100.151 17.6001ZM112.691 17.6301C112.691 16.3501 112.331 15.3401 111.611 14.6001C110.911 13.8601 110.051 13.4901 109.031 13.4901C108.011 13.4901 107.141 13.8601 106.421 14.6001C105.721 15.3201 105.371 16.3201 105.371 17.6001C105.371 18.8801 105.721 19.9001 106.421 20.6601C107.141 21.4001 108.011 21.7701 109.031 21.7701C110.051 21.7701 110.911 21.4001 111.611 20.6601C112.331 19.9201 112.691 18.9101 112.691 17.6301ZM124.112 7.52009C123.212 7.52009 122.472 7.26009 121.892 6.7401C121.332 6.2001 121.052 5.5401 121.052 4.7601C121.052 3.9601 121.332 3.30009 121.892 2.78009C122.472 2.24009 123.212 1.97009 124.112 1.97009C124.992 1.97009 125.712 2.24009 126.272 2.78009C126.852 3.30009 127.142 3.9601 127.142 4.7601C127.142 5.5401 126.852 6.2001 126.272 6.7401C125.712 7.26009 124.992 7.52009 124.112 7.52009ZM126.662 9.2601V26.0001H121.532V9.2601H126.662ZM129.36 17.6001C129.36 15.8801 129.68 14.3701 130.32 13.0701C130.98 11.7701 131.87 10.7701 132.99 10.0701C134.11 9.37009 135.36 9.02009 136.74 9.02009C137.92 9.02009 138.95 9.26009 139.83 9.74009C140.73 10.2201 141.42 10.8501 141.9 11.6301V9.2601H147.03V26.0001H141.9V23.6301C141.4 24.4101 140.7 25.0401 139.8 25.5201C138.92 26.0001 137.89 26.2401 136.71 26.2401C135.35 26.2401 134.11 25.8901 132.99 25.1901C131.87 24.4701 130.98 23.4601 130.32 22.1601C129.68 20.8401 129.36 19.3201 129.36 17.6001ZM141.9 17.6301C141.9 16.3501 141.54 15.3401 140.82 14.6001C140.12 13.8601 139.26 13.4901 138.24 13.4901C137.22 13.4901 136.35 13.8601 135.63 14.6001C134.93 15.3201 134.58 16.3201 134.58 17.6001C134.58 18.8801 134.93 19.9001 135.63 20.6601C136.35 21.4001 137.22 21.7701 138.24 21.7701C139.26 21.7701 140.12 21.4001 140.82 20.6601C141.54 19.9201 141.9 18.9101 141.9 17.6301ZM160.071 21.6501V26.0001H157.461C155.601 26.0001 154.151 25.5501 153.111 24.6501C152.071 23.7301 151.551 22.2401 151.551 20.1801V13.5201H149.511V9.2601H151.551V5.1801H156.681V9.2601H160.041V13.5201H156.681V20.2401C156.681 20.7401 156.801 21.1001 157.041 21.3201C157.281 21.5401 157.681 21.6501 158.241 21.6501H160.071ZM168.058 12.0501C168.658 11.1301 169.408 10.4101 170.308 9.8901C171.208 9.3501 172.208 9.0801 173.308 9.0801V14.5101H171.898C170.618 14.5101 169.658 14.7901 169.018 15.3501C168.378 15.8901 168.058 16.8501 168.058 18.2301V26.0001H162.928V9.2601H168.058V12.0501ZM178.34 7.52009C177.44 7.52009 176.7 7.26009 176.12 6.7401C175.56 6.2001 175.28 5.5401 175.28 4.7601C175.28 3.9601 175.56 3.30009 176.12 2.78009C176.7 2.24009 177.44 1.97009 178.34 1.97009C179.22 1.97009 179.94 2.24009 180.5 2.78009C181.08 3.30009 181.37 3.9601 181.37 4.7601C181.37 5.5401 181.08 6.2001 180.5 6.7401C179.94 7.26009 179.22 7.52009 178.34 7.52009ZM180.89 9.2601V26.0001H175.76V9.2601H180.89ZM183.588 17.6301C183.588 15.8901 183.938 14.3701 184.638 13.0701C185.358 11.7701 186.348 10.7701 187.608 10.0701C188.888 9.37009 190.348 9.02009 191.988 9.02009C194.088 9.02009 195.838 9.57009 197.238 10.6701C198.658 11.7701 199.588 13.3201 200.028 15.3201H194.568C194.108 14.0401 193.218 13.4001 191.898 13.4001C190.958 13.4001 190.208 13.7701 189.648 14.5101C189.088 15.2301 188.808 16.2701 188.808 17.6301C188.808 18.9901 189.088 20.0401 189.648 20.7801C190.208 21.5001 190.958 21.8601 191.898 21.8601C193.218 21.8601 194.108 21.2201 194.568 19.9401H200.028C199.588 21.9001 198.658 23.4401 197.238 24.5601C195.818 25.6801 194.068 26.2401 191.988 26.2401C190.348 26.2401 188.888 25.8901 187.608 25.1901C186.348 24.4901 185.358 23.4901 184.638 22.1901C183.938 20.8901 183.588 19.3701 183.588 17.6301ZM209.582 26.2401C208.122 26.2401 206.822 25.9901 205.682 25.4901C204.542 24.9901 203.642 24.3101 202.982 23.4501C202.322 22.5701 201.952 21.5901 201.872 20.5101H206.942C207.002 21.0901 207.272 21.5601 207.752 21.9201C208.232 22.2801 208.822 22.4601 209.522 22.4601C210.162 22.4601 210.652 22.3401 210.992 22.1001C211.352 21.8401 211.532 21.5101 211.532 21.1101C211.532 20.6301 211.282 20.2801 210.782 20.0601C210.282 19.8201 209.472 19.5601 208.352 19.2801C207.152 19.0001 206.152 18.7101 205.352 18.4101C204.552 18.0901 203.862 17.6001 203.282 16.9401C202.702 16.2601 202.412 15.3501 202.412 14.2101C202.412 13.2501 202.672 12.3801 203.192 11.6001C203.732 10.8001 204.512 10.1701 205.532 9.71009C206.572 9.25009 207.802 9.02009 209.222 9.02009C211.322 9.02009 212.972 9.54009 214.172 10.5801C215.392 11.6201 216.092 13.0001 216.272 14.7201H211.532C211.452 14.1401 211.192 13.6801 210.752 13.3401C210.332 13.0001 209.772 12.8301 209.072 12.8301C208.472 12.8301 208.012 12.9501 207.692 13.1901C207.372 13.4101 207.212 13.7201 207.212 14.1201C207.212 14.6001 207.462 14.9601 207.962 15.2001C208.482 15.4401 209.282 15.6801 210.362 15.9201C211.602 16.2401 212.612 16.5601 213.392 16.8801C214.172 17.1801 214.852 17.6801 215.432 18.3801C216.032 19.0601 216.342 19.9801 216.362 21.1401C216.362 22.1201 216.082 23.0001 215.522 23.7801C214.982 24.5401 214.192 25.1401 213.152 25.5801C212.132 26.0201 210.942 26.2401 209.582 26.2401Z" fill="white"/>
<path d="M62.7695 38.7181C62.7695 37.4941 63.0515 36.3961 63.6155 35.4241C64.1915 34.4521 64.9655 33.6961 65.9375 33.1561C66.9215 32.6041 67.9955 32.3281 69.1595 32.3281C70.4915 32.3281 71.6735 32.6581 72.7055 33.3181C73.7495 33.9661 74.5055 34.8901 74.9735 36.0901H72.5075C72.1835 35.4301 71.7335 34.9381 71.1575 34.6141C70.5815 34.2901 69.9155 34.1281 69.1595 34.1281C68.3315 34.1281 67.5935 34.3141 66.9455 34.6861C66.2975 35.0581 65.7875 35.5921 65.4155 36.2881C65.0555 36.9841 64.8755 37.7941 64.8755 38.7181C64.8755 39.6421 65.0555 40.4521 65.4155 41.1481C65.7875 41.8441 66.2975 42.3841 66.9455 42.7681C67.5935 43.1401 68.3315 43.3261 69.1595 43.3261C69.9155 43.3261 70.5815 43.1641 71.1575 42.8401C71.7335 42.5161 72.1835 42.0241 72.5075 41.3641H74.9735C74.5055 42.5641 73.7495 43.4881 72.7055 44.1361C71.6735 44.7841 70.4915 45.1081 69.1595 45.1081C67.9835 45.1081 66.9095 44.8381 65.9375 44.2981C64.9655 43.7461 64.1915 42.9841 63.6155 42.0121C63.0515 41.0401 62.7695 39.9421 62.7695 38.7181ZM79.4274 31.6801V45.0001H77.3754V31.6801H79.4274ZM83.1655 33.7681C82.7935 33.7681 82.4815 33.6421 82.2295 33.3901C81.9775 33.1381 81.8515 32.8261 81.8515 32.4541C81.8515 32.0821 81.9775 31.7701 82.2295 31.5181C82.4815 31.2661 82.7935 31.1401 83.1655 31.1401C83.5255 31.1401 83.8315 31.2661 84.0835 31.5181C84.3355 31.7701 84.4615 32.0821 84.4615 32.4541C84.4615 32.8261 84.3355 33.1381 84.0835 33.3901C83.8315 33.6421 83.5255 33.7681 83.1655 33.7681ZM84.1735 35.0821V45.0001H82.1215V35.0821H84.1735ZM91.8716 34.9201C92.6516 34.9201 93.3476 35.0821 93.9596 35.4061C94.5836 35.7301 95.0696 36.2101 95.4176 36.8461C95.7656 37.4821 95.9396 38.2501 95.9396 39.1501V45.0001H93.9056V39.4561C93.9056 38.5681 93.6836 37.8901 93.2396 37.4221C92.7956 36.9421 92.1896 36.7021 91.4216 36.7021C90.6536 36.7021 90.0416 36.9421 89.5856 37.4221C89.1416 37.8901 88.9196 38.5681 88.9196 39.4561V45.0001H86.8676V35.0821H88.9196V36.2161C89.2556 35.8081 89.6816 35.4901 90.1976 35.2621C90.7256 35.0341 91.2836 34.9201 91.8716 34.9201ZM99.601 33.7681C99.229 33.7681 98.917 33.6421 98.665 33.3901C98.413 33.1381 98.287 32.8261 98.287 32.4541C98.287 32.0821 98.413 31.7701 98.665 31.5181C98.917 31.2661 99.229 31.1401 99.601 31.1401C99.961 31.1401 100.267 31.2661 100.519 31.5181C100.771 31.7701 100.897 32.0821 100.897 32.4541C100.897 32.8261 100.771 33.1381 100.519 33.3901C100.267 33.6421 99.961 33.7681 99.601 33.7681ZM100.609 35.0821V45.0001H98.557V35.0821H100.609ZM102.619 40.0321C102.619 39.0121 102.823 38.1181 103.231 37.3501C103.651 36.5701 104.227 35.9701 104.959 35.5501C105.691 35.1301 106.531 34.9201 107.479 34.9201C108.679 34.9201 109.669 35.2081 110.449 35.7841C111.241 36.3481 111.775 37.1581 112.051 38.2141H109.837C109.657 37.7221 109.369 37.3381 108.973 37.0621C108.577 36.7861 108.079 36.6481 107.479 36.6481C106.639 36.6481 105.967 36.9481 105.463 37.5481C104.971 38.1361 104.725 38.9641 104.725 40.0321C104.725 41.1001 104.971 41.9341 105.463 42.5341C105.967 43.1341 106.639 43.4341 107.479 43.4341C108.667 43.4341 109.453 42.9121 109.837 41.8681H112.051C111.763 42.8761 111.223 43.6801 110.431 44.2801C109.639 44.8681 108.655 45.1621 107.479 45.1621C106.531 45.1621 105.691 44.9521 104.959 44.5321C104.227 44.1001 103.651 43.5001 103.231 42.7321C102.823 41.9521 102.619 41.0521 102.619 40.0321ZM127.272 32.4901V45.0001H125.22V36.4321L121.404 45.0001H119.982L116.148 36.4321V45.0001H114.096V32.4901H116.31L120.702 42.3001L125.076 32.4901H127.272ZM129.285 39.9961C129.285 39.0001 129.489 38.1181 129.897 37.3501C130.317 36.5821 130.881 35.9881 131.589 35.5681C132.309 35.1361 133.101 34.9201 133.965 34.9201C134.745 34.9201 135.423 35.0761 135.999 35.3881C136.587 35.6881 137.055 36.0661 137.403 36.5221V35.0821H139.473V45.0001H137.403V43.5241C137.055 43.9921 136.581 44.3821 135.981 44.6941C135.381 45.0061 134.697 45.1621 133.929 45.1621C133.077 45.1621 132.297 44.9461 131.589 44.5141C130.881 44.0701 130.317 43.4581 129.897 42.6781C129.489 41.8861 129.285 40.9921 129.285 39.9961ZM137.403 40.0321C137.403 39.3481 137.259 38.7541 136.971 38.2501C136.695 37.7461 136.329 37.3621 135.873 37.0981C135.417 36.8341 134.925 36.7021 134.397 36.7021C133.869 36.7021 133.377 36.8341 132.921 37.0981C132.465 37.3501 132.093 37.7281 131.805 38.2321C131.529 38.7241 131.391 39.3121 131.391 39.9961C131.391 40.6801 131.529 41.2801 131.805 41.7961C132.093 42.3121 132.465 42.7081 132.921 42.9841C133.389 43.2481 133.881 43.3801 134.397 43.3801C134.925 43.3801 135.417 43.2481 135.873 42.9841C136.329 42.7201 136.695 42.3361 136.971 41.8321C137.259 41.3161 137.403 40.7161 137.403 40.0321ZM145.768 45.1621C144.988 45.1621 144.286 45.0241 143.662 44.7481C143.05 44.4601 142.564 44.0761 142.204 43.5961C141.844 43.1041 141.652 42.5581 141.628 41.9581H143.752C143.788 42.3781 143.986 42.7321 144.346 43.0201C144.718 43.2961 145.18 43.4341 145.732 43.4341C146.308 43.4341 146.752 43.3261 147.064 43.1101C147.388 42.8821 147.55 42.5941 147.55 42.2461C147.55 41.8741 147.37 41.5981 147.01 41.4181C146.662 41.2381 146.104 41.0401 145.336 40.8241C144.592 40.6201 143.986 40.4221 143.518 40.2301C143.05 40.0381 142.642 39.7441 142.294 39.3481C141.958 38.9521 141.79 38.4301 141.79 37.7821C141.79 37.2541 141.946 36.7741 142.258 36.3421C142.57 35.8981 143.014 35.5501 143.59 35.2981C144.178 35.0461 144.85 34.9201 145.606 34.9201C146.734 34.9201 147.64 35.2081 148.324 35.7841C149.02 36.3481 149.392 37.1221 149.44 38.1061H147.388C147.352 37.6621 147.172 37.3081 146.848 37.0441C146.524 36.7801 146.086 36.6481 145.534 36.6481C144.994 36.6481 144.58 36.7501 144.292 36.9541C144.004 37.1581 143.86 37.4281 143.86 37.7641C143.86 38.0281 143.956 38.2501 144.148 38.4301C144.34 38.6101 144.574 38.7541 144.85 38.8621C145.126 38.9581 145.534 39.0841 146.074 39.2401C146.794 39.4321 147.382 39.6301 147.838 39.8341C148.306 40.0261 148.708 40.3141 149.044 40.6981C149.38 41.0821 149.554 41.5921 149.566 42.2281C149.566 42.7921 149.41 43.2961 149.098 43.7401C148.786 44.1841 148.342 44.5321 147.766 44.7841C147.202 45.0361 146.536 45.1621 145.768 45.1621ZM154.178 36.7561V42.2461C154.178 42.6181 154.262 42.8881 154.43 43.0561C154.61 43.2121 154.91 43.2901 155.33 43.2901H156.59V45.0001H154.97C154.046 45.0001 153.338 44.7841 152.846 44.3521C152.354 43.9201 152.108 43.2181 152.108 42.2461V36.7561H150.938V35.0821H152.108V32.6161H154.178V35.0821H156.59V36.7561H154.178ZM167.571 39.7981C167.571 40.1701 167.547 40.5061 167.499 40.8061H159.921C159.981 41.5981 160.275 42.2341 160.803 42.7141C161.331 43.1941 161.979 43.4341 162.747 43.4341C163.851 43.4341 164.631 42.9721 165.087 42.0481H167.301C167.001 42.9601 166.455 43.7101 165.663 44.2981C164.883 44.8741 163.911 45.1621 162.747 45.1621C161.799 45.1621 160.947 44.9521 160.191 44.5321C159.447 44.1001 158.859 43.5001 158.427 42.7321C158.007 41.9521 157.797 41.0521 157.797 40.0321C157.797 39.0121 158.001 38.1181 158.409 37.3501C158.829 36.5701 159.411 35.9701 160.155 35.5501C160.911 35.1301 161.775 34.9201 162.747 34.9201C163.683 34.9201 164.517 35.1241 165.249 35.5321C165.981 35.9401 166.551 36.5161 166.959 37.2601C167.367 37.9921 167.571 38.8381 167.571 39.7981ZM165.429 39.1501C165.417 38.3941 165.147 37.7881 164.619 37.3321C164.091 36.8761 163.437 36.6481 162.657 36.6481C161.949 36.6481 161.343 36.8761 160.839 37.3321C160.335 37.7761 160.035 38.3821 159.939 39.1501H165.429ZM171.642 36.5221C171.942 36.0181 172.338 35.6281 172.83 35.3521C173.334 35.0641 173.928 34.9201 174.612 34.9201V37.0441H174.09C173.286 37.0441 172.674 37.2481 172.254 37.6561C171.846 38.0641 171.642 38.7721 171.642 39.7801V45.0001H169.59V35.0821H171.642V36.5221Z" fill="#EAEAEA"/>
</g>
<defs>
<clipPath id="clip0_29454_261">
<rect width="219" height="50" fill="white"/>
</clipPath>
</defs>
</svg>
