<?xml version="1.0" encoding="UTF-8"?>
<svg version="1.1" xmlns="http://www.w3.org/2000/svg" width="1284" height="500">
<path d="M0 0 C8.25 0 16.5 0 25 0 C26 1 26 1 26.12469864 2.88946152 C26.12463633 4.13935049 26.12463633 4.13935049 26.12457275 5.41448975 C26.12713577 6.36785217 26.12969879 7.3212146 26.13233948 8.3034668 C26.13023972 9.35800049 26.12813995 10.41253418 26.12597656 11.49902344 C26.1278447 12.60304504 26.12971283 13.70706665 26.13163757 14.84454346 C26.13565268 17.25143957 26.13771742 19.65833952 26.13809967 22.06523895 C26.14150081 27.17522493 26.16284582 32.285082 26.18333054 37.39502335 C26.22143175 46.92059171 26.25316524 56.44602665 26.25048828 65.97167969 C26.24872923 72.58655557 26.27301294 79.20102446 26.3123703 85.81580353 C26.32285484 88.34037425 26.32433643 90.86499877 26.31671906 93.38957977 C26.30712722 96.92136906 26.32822647 100.45173755 26.35644531 103.98339844 C26.34624863 105.02983521 26.33605194 106.07627197 26.32554626 107.15441895 C26.40171682 113.08822203 26.40171682 113.08822203 29.39984131 118.12139893 C31.80613976 119.85993699 33.60102591 120.89369174 36.4375 121.6875 C37.51837891 122.00267578 37.51837891 122.00267578 38.62109375 122.32421875 C39.40613281 122.54722656 40.19117188 122.77023438 41 123 C43.00236818 123.6595196 45.00289212 124.32471892 47 125 C47.02888146 128.31248187 47.04675799 131.62493167 47.0625 134.9375 C47.07087891 135.88302734 47.07925781 136.82855469 47.08789062 137.80273438 C47.09111328 138.70185547 47.09433594 139.60097656 47.09765625 140.52734375 C47.10289307 141.35999756 47.10812988 142.19265137 47.11352539 143.05053711 C47 145 47 145 46 146 C32.75118985 147.53097362 17.71126251 143.72641788 7.1484375 135.5703125 C5.75 134.25 5.75 134.25 4 132 C4 131.34 4 130.68 4 130 C3.34515625 130.58007812 2.6903125 131.16015625 2.015625 131.7578125 C-10.2244529 142.23448934 -23.60368936 148.76025338 -39.98828125 148.2890625 C-52.27035807 147.11023801 -62.4993459 142.68137991 -72 135 C-73.010625 134.278125 -74.02125 133.55625 -75.0625 132.8125 C-85.3088128 124.10173817 -90.03674132 109.21637992 -91.2578125 96.265625 C-91.86053311 81.39851663 -86.96118092 65.75567917 -76.82421875 54.6875 C-65.39020799 44.11042795 -52.78784696 38.32976784 -37.125 37.5625 C-22.94340439 38.12229983 -11.21246505 43.59065121 0 52 C0 34.84 0 17.68 0 0 Z M-58.37890625 72.8125 C-63.95738717 80.34008871 -65.89428203 88.77204635 -65 98 C-62.98051169 107.15844379 -58.36717002 114.20393051 -50.69140625 119.6328125 C-41.93328434 124.80202442 -31.97790189 125.26337891 -22.19140625 122.8125 C-14.60160803 119.99845717 -7.63435761 112.99780611 -3.8984375 105.91015625 C-0.73223146 97.72832476 -0.77045015 88.25030447 -3.97265625 80.08984375 C-8.31744076 71.25159388 -14.81330418 66.40043798 -23.9296875 62.86328125 C-36.69106281 59.27515918 -49.50451074 63.07095981 -58.37890625 72.8125 Z " fill="#070707" transform="translate(517,122)"/>
<path d="M0 0 C8.25 0 16.5 0 25 0 C25.01458252 3.32586182 25.02916504 6.65172363 25.04418945 10.07836914 C25.094541 21.07071406 25.16113728 32.06291741 25.23571491 43.05512333 C25.28042992 49.71927956 25.31968377 56.383353 25.34643555 63.04760742 C25.37245686 69.47975101 25.41285169 75.91165887 25.46318626 82.34365654 C25.47986277 84.79678857 25.49137215 87.24996139 25.49761391 89.70314217 C25.5072461 93.14096884 25.53529639 96.57819132 25.56762695 100.01586914 C25.56619186 101.02863419 25.56475677 102.04139923 25.5632782 103.08485413 C25.63934548 108.80951242 26.17186413 112.97369808 29 118 C34.66704682 122.27919862 38.55767218 122.51153444 46 124 C46 131.26 46 138.52 46 146 C32.93672294 146 18.16351359 145.33953278 7.91015625 136.12109375 C6.70019893 134.89629033 5.51744955 133.64347076 4.375 132.35546875 C3.08441488 130.76598972 3.08441488 130.76598972 1 131 C0.319375 131.70125 -0.36125 132.4025 -1.0625 133.125 C-9.76308403 142.05255579 -22.26401083 147.38069891 -34.640625 148.16796875 C-51.06091137 148.29087509 -64.17186865 143.1152099 -76.26171875 131.90234375 C-87.11596896 120.51054972 -91.52473865 106.27602356 -91.421875 90.84326172 C-90.89995342 74.44736986 -83.84380284 61.11524084 -72 50 C-60.54663717 41.0058427 -46.5068099 36.76648682 -32 38 C-20.28283479 40.0443708 -11.54372989 43.82728274 -2 51 C-1.98969254 50.40531418 -1.97938507 49.81062836 -1.96876526 49.19792175 C-1.86072115 43.01749631 -1.74612134 36.83721728 -1.62768555 30.65698242 C-1.58433001 28.34939635 -1.5426554 26.04177806 -1.50268555 23.73413086 C-1.44499817 20.42031133 -1.38129908 17.10665403 -1.31640625 13.79296875 C-1.29969376 12.7585112 -1.28298126 11.72405365 -1.26576233 10.6582489 C-1.24581711 9.6974794 -1.22587189 8.7367099 -1.20532227 7.74682617 C-1.18977798 6.90077316 -1.1742337 6.05472015 -1.15821838 5.18302917 C-1 3 -1 3 0 0 Z M-58 72 C-64.66221865 81.17325095 -65.91749971 88.71723332 -65 100 C-64.05571031 103.2816404 -62.71136468 106.05721056 -61 109 C-60.5875 109.886875 -60.175 110.77375 -59.75 111.6875 C-55.42102099 117.40793655 -48.55813628 121.60723614 -41.75 123.6875 C-31.55301395 124.84624841 -22.64118374 123.97829348 -14.1875 117.75 C-7.03867201 111.72329845 -2.92319431 104.94647425 -1.6796875 95.58984375 C-1.25792169 86.71870281 -4.0126729 78.97567458 -9.625 72.125 C-16.16549038 65.29055499 -24.26064179 61.92222666 -33.625 61.6875 C-42.94636138 61.7895587 -51.40148905 65.33084118 -58 72 Z " fill="#060606" transform="translate(1051,122)"/>
<path d="M0 0 C83.03903346 0 83.03903346 0 97.28515625 13.1015625 C106.48142692 22.83070119 110.81973736 34.67859101 111 48 C109.8871757 62.40489236 103.6342875 73.33975258 92.95703125 82.8125 C79.18168236 93.81078255 63.01630524 93.28784962 46.25 93.125 C40.2275 93.08375 34.205 93.0425 28 93 C28 110.16 28 127.32 28 145 C18.76 145 9.52 145 0 145 C0 97.15 0 49.3 0 0 Z M28 26 C28 39.53 28 53.06 28 67 C37.1575 67.12375 37.1575 67.12375 46.5 67.25 C49.36655273 67.30462402 49.36655273 67.30462402 52.29101562 67.36035156 C53.82941571 67.37204922 55.3678283 67.38223849 56.90625 67.390625 C57.68581055 67.41108887 58.46537109 67.43155273 59.26855469 67.45263672 C65.84899912 67.45676498 71.05707061 65.60204954 76.0234375 61.2109375 C80.20242761 55.53427463 82.69416269 49.77334343 81.65234375 42.609375 C80.12641239 37.23663465 77.39934114 32.50856546 73 29 C67.46924249 26.14779582 63.17409827 25.58634522 57.00390625 25.70703125 C55.89396301 25.71156311 55.89396301 25.71156311 54.76159668 25.71618652 C52.02842017 25.73174381 49.29544433 25.77362667 46.5625 25.8125 C40.436875 25.874375 34.31125 25.93625 28 26 Z " fill="#060606" transform="translate(189,123)"/>
<path d="M0 0 C1.83158852 1.2226846 1.83158852 1.2226846 4.69921875 2.05078125 C5.35921875 -0.25921875 6.01921875 -2.56921875 6.69921875 -4.94921875 C14.61921875 -4.94921875 22.53921875 -4.94921875 30.69921875 -4.94921875 C30.71380127 -2.90089844 30.72838379 -0.85257813 30.7434082 1.2578125 C30.79388504 8.0472687 30.86050275 14.83649871 30.93493366 21.62573242 C30.97954329 25.73956316 31.01881971 29.85329702 31.0456543 33.96728516 C31.07178174 37.94212767 31.11224967 41.91659546 31.16240501 45.89120483 C31.17901023 47.40289629 31.19056385 48.91465246 31.19683266 50.42642212 C31.01531098 63.2252729 31.01531098 63.2252729 36.63671875 74.36328125 C41.41553439 76.9965062 46.37938621 77.88158729 51.69921875 79.05078125 C51.69921875 85.98078125 51.69921875 92.91078125 51.69921875 100.05078125 C37.71040215 100.05078125 24.21770986 98.70151435 13.3984375 88.984375 C11.69921875 87.05078125 11.69921875 87.05078125 11.69921875 85.05078125 C11.1165625 85.55867188 10.53390625 86.0665625 9.93359375 86.58984375 C-3.70590784 98.0418781 -18.13638247 103.23835465 -35.89453125 101.84765625 C-50.48207712 99.8740471 -62.76917584 91.38029616 -71.67578125 79.92578125 C-72.56826635 78.6461336 -73.44474299 77.3550919 -74.30078125 76.05078125 C-75.38359375 74.41109375 -75.38359375 74.41109375 -76.48828125 72.73828125 C-83.21847212 60.01005417 -83.55358823 42.59509733 -79.73828125 28.86328125 C-77.47902476 22.7148761 -74.1134833 17.34964094 -70.30078125 12.05078125 C-69.77613281 11.28894531 -69.25148438 10.52710938 -68.7109375 9.7421875 C-68.24558594 9.18402344 -67.78023437 8.62585938 -67.30078125 8.05078125 C-66.64078125 8.05078125 -65.98078125 8.05078125 -65.30078125 8.05078125 C-65.30078125 7.39078125 -65.30078125 6.73078125 -65.30078125 6.05078125 C-46.83057891 -9.31582152 -20.88413422 -13.25260384 0 0 Z M-51.11328125 29.17578125 C-55.58225267 36.03830346 -57.09612116 44.653386 -55.86328125 52.6796875 C-53.72826988 61.67935347 -49.04470028 68.39075182 -41.1796875 73.40234375 C-33.88004257 77.23845205 -25.77575053 78.49590889 -17.7109375 76.3671875 C-8.50906981 72.95016113 -1.62347255 67.99367702 2.69921875 59.05078125 C5.74793476 51.21122579 5.70648722 43.06533244 2.73828125 35.21484375 C-0.83645829 27.76970953 -6.12376689 21.94723555 -13.9453125 19.08203125 C-28.03859871 14.91766761 -41.54093512 17.52990021 -51.11328125 29.17578125 Z " fill="#060606" transform="translate(786.30078125,167.94921875)"/>
<path d="M0 0 C8.54457393 7.85839399 12.43800448 17.21652535 15.73046875 28.19140625 C15.73046875 36.11140625 15.73046875 44.03140625 15.73046875 52.19140625 C-11.65953125 52.19140625 -39.04953125 52.19140625 -67.26953125 52.19140625 C-62.748311 62.36415181 -60.15720481 66.78442047 -50.26953125 71.19140625 C-42.14477129 74.21769299 -33.01114209 74.0022447 -24.9453125 70.921875 C-19.90592641 68.47346478 -15.57523931 65.7872965 -11.26953125 62.19140625 C-8.61493138 64.1171175 -5.97250594 66.05888369 -3.33203125 68.00390625 C-2.57728516 68.55111328 -1.82253906 69.09832031 -1.04492188 69.66210938 C-0.32626953 70.19384766 0.39238281 70.72558594 1.1328125 71.2734375 C1.79788818 71.76046143 2.46296387 72.24748535 3.14819336 72.74926758 C4.73046875 74.19140625 4.73046875 74.19140625 5.73046875 77.19140625 C-0.18427677 87.3435814 -12.38291143 93.15555724 -23.26953125 96.19140625 C-40.69144152 99.94074132 -58.62039318 97.25813537 -73.609375 87.69921875 C-85.36788177 79.29741392 -92.21683405 66.51246702 -94.64453125 52.44140625 C-96.73786582 34.20524165 -92.99578801 18.09236824 -81.51953125 3.50390625 C-61.12430616 -19.01582145 -22.68920228 -18.08106825 0 0 Z M-62.45703125 20.69140625 C-65.28954555 24.49565903 -65.41636597 26.07241456 -66.26953125 31.19140625 C-48.11953125 31.19140625 -29.96953125 31.19140625 -11.26953125 31.19140625 C-14.43177252 22.75876286 -17.36646831 16.91301939 -25.51953125 12.75390625 C-38.63996207 6.9021941 -53.14776117 9.50892938 -62.45703125 20.69140625 Z " fill="#080808" transform="translate(398.26953125,172.80859375)"/>
<path d="M0 0 C8.84036281 6.7686245 14.87099908 14.65612131 16.6875 25.8125 C16.774579 28.33717235 16.81412505 30.8328593 16.80102539 33.35668945 C16.80117142 34.09869095 16.80131744 34.84069244 16.8014679 35.60517883 C16.80077404 38.0454099 16.7930064 40.4855636 16.78515625 42.92578125 C16.7832902 44.62257343 16.78186718 46.31936615 16.78086853 48.01615906 C16.7770581 52.4729665 16.76724043 56.92974113 16.75616455 61.38653564 C16.7459187 65.93802446 16.74136412 70.48951859 16.73632812 75.04101562 C16.72561681 83.96486045 16.70803197 92.88867236 16.6875 101.8125 C8.1075 101.8125 -0.4725 101.8125 -9.3125 101.8125 C-9.32708252 99.88011475 -9.34166504 97.94772949 -9.35668945 95.95678711 C-9.40844681 89.55448075 -9.47376108 83.1524235 -9.54821491 76.75034237 C-9.59284099 72.87077369 -9.63211379 68.99130813 -9.65893555 65.11157227 C-9.68504659 61.36365647 -9.72550299 57.61613919 -9.77568626 53.86847115 C-9.79230252 52.44247986 -9.80384934 51.01641972 -9.81011391 49.59034538 C-9.79584527 37.38870032 -9.79584527 37.38870032 -15.625 27.0625 C-21.39043491 22.23562426 -25.92020881 21.25852307 -33.3359375 21.4609375 C-38.95152621 22.12419601 -42.67797349 24.22098735 -46.6875 28.125 C-49.80462086 33.28023835 -50.5607205 38.53772508 -50.63134766 44.48217773 C-50.65121735 45.76297714 -50.67108704 47.04377655 -50.69155884 48.36338806 C-50.70343158 49.74095487 -50.71509465 51.11852351 -50.7265625 52.49609375 C-50.74529555 53.92099604 -50.76487052 55.34588749 -50.7852478 56.77076721 C-50.83634969 60.50081967 -50.87609199 64.230908 -50.91339111 67.96112061 C-50.95356924 71.77560135 -51.00459823 75.58993568 -51.0546875 79.40429688 C-51.15118654 86.87359709 -51.23567354 94.34296877 -51.3125 101.8125 C-55.62498609 101.84136537 -59.93744762 101.85925255 -64.25 101.875 C-65.48169922 101.88337891 -66.71339844 101.89175781 -67.98242188 101.90039062 C-69.15224609 101.90361328 -70.32207031 101.90683594 -71.52734375 101.91015625 C-73.15337524 101.91801147 -73.15337524 101.91801147 -74.81225586 101.92602539 C-77.3125 101.8125 -77.3125 101.8125 -78.3125 100.8125 C-78.40781163 99.4590941 -78.4343872 98.10076016 -78.43275452 96.7440033 C-78.43412918 95.86755661 -78.43550385 94.99110992 -78.43692017 94.08810425 C-78.43332489 93.11922272 -78.42972961 92.15034119 -78.42602539 91.15209961 C-78.42617142 90.13758224 -78.42631744 89.12306488 -78.4264679 88.07780457 C-78.42576829 84.70679627 -78.41797368 81.33584246 -78.41015625 77.96484375 C-78.40829224 75.63456757 -78.40686826 73.304291 -78.40586853 70.97401428 C-78.40204202 64.82712735 -78.3922106 58.68026387 -78.38116455 52.53338623 C-78.37095329 46.26640134 -78.36637152 39.99941268 -78.36132812 33.73242188 C-78.35058845 21.42576926 -78.33299058 9.11914025 -78.3125 -3.1875 C-71.3825 -3.1875 -64.4525 -3.1875 -57.3125 -3.1875 C-56.9825 0.4425 -56.6525 4.0725 -56.3125 7.8125 C-54.9925 6.575 -53.6725 5.3375 -52.3125 4.0625 C-38.15719833 -8.47568583 -16.06517262 -10.61319096 0 0 Z " fill="#060606" transform="translate(931.3125,166.1875)"/>
<path d="M0 0 C15.18 0 30.36 0 46 0 C46 40.92 46 81.84 46 124 C51.61 124 57.22 124 63 124 C63 130.93 63 137.86 63 145 C54.9334741 145.02255449 46.86697254 145.04091709 38.80042362 145.05181217 C35.05516963 145.05704014 31.30993824 145.06413622 27.56469727 145.07543945 C23.95318313 145.08627141 20.34169079 145.09227749 16.73016167 145.09487724 C15.34939671 145.09673094 13.968633 145.10035049 12.58787727 145.10573006 C10.66024048 145.11294447 8.73258193 145.11340809 6.80493164 145.11352539 C5.15612755 145.11685631 5.15612755 145.11685631 3.47401428 145.12025452 C1 145 1 145 0 144 C-0.08669432 142.5112814 -0.10703494 141.018555 -0.09765625 139.52734375 C-0.09515869 138.71773193 -0.09266113 137.90812012 -0.09008789 137.07397461 C-0.08098389 136.03893799 -0.07187988 135.00390137 -0.0625 133.9375 C-0.0315625 129.0184375 -0.0315625 129.0184375 0 124 C6.6 124 13.2 124 20 124 C20 90.34 20 56.68 20 22 C14.72 22 9.44 22 4 22 C2.68 21.67 1.36 21.34 0 21 C0 14.07 0 7.14 0 0 Z " fill="#060606" transform="translate(637,123)"/>
<path d="M0 0 C8.25 0 16.5 0 25 0 C26.75439163 1.75439163 26.11982963 4.05497456 26.12442017 6.39170837 C26.12082489 7.1642244 26.11722961 7.93674042 26.11352539 8.73266602 C26.11367142 9.5423584 26.11381744 10.35205078 26.1139679 11.1862793 C26.11326854 13.87551508 26.1054751 16.56468249 26.09765625 19.25390625 C26.09579215 21.11335716 26.09436821 22.97280856 26.09336853 24.83226013 C26.08954271 29.73629096 26.07971188 34.64029236 26.06866455 39.54431152 C26.05845181 44.54451092 26.05387121 49.54471506 26.04882812 54.54492188 C26.03808967 64.36329628 26.02049235 74.1816411 26 84 C31.94 84 37.88 84 44 84 C44.02683436 87.31255326 44.0467578 90.62489183 44.0625 93.9375 C44.07087891 94.88302734 44.07925781 95.82855469 44.08789062 96.80273438 C44.09111328 97.70185547 44.09433594 98.60097656 44.09765625 99.52734375 C44.10289307 100.35999756 44.10812988 101.19265137 44.11352539 102.05053711 C44 104 44 104 43 105 C28.81 105 14.62 105 0 105 C0 70.35 0 35.7 0 0 Z " fill="#070707" transform="translate(579,163)"/>
<path d="M0 0 C4.81598916 2.63516388 8.19728677 5.71548839 10.3125 10.8125 C11.17983853 16.7426751 10.56155202 21.8979406 7.5859375 27.12109375 C5.1477259 30.35957726 2.10112755 32.12012805 -1.625 33.5625 C-7.78909866 34.30966347 -12.21147453 33.89898708 -17.6875 30.8125 C-22.14022347 26.57991118 -24.78856032 22.91254823 -25 16.625 C-24.92684282 11.6340544 -23.66182052 7.83283538 -20.6875 3.8125 C-14.14268287 -1.39664016 -7.90042539 -2.54420479 0 0 Z " fill="#0A0A0A" transform="translate(597.6875,113.1875)"/>
<path d="M0 0 C8 0 8 0 10.1015625 1.8359375 C10.60429687 2.67382812 11.10703125 3.51171875 11.625 4.375 C12.18574219 5.27734375 12.74648438 6.1796875 13.32421875 7.109375 C13.87722656 8.06328125 14.43023437 9.0171875 15 10 C15.87591797 11.43085938 15.87591797 11.43085938 16.76953125 12.890625 C18.20558584 15.24481285 19.60629163 17.62049791 21 20 C21.33 13.4 21.66 6.8 22 0 C24.64 0 27.28 0 30 0 C30 12.21 30 24.42 30 37 C22 37 22 37 19.93359375 35.234375 C19.43988281 34.41453125 18.94617188 33.5946875 18.4375 32.75 C17.87804687 31.85023438 17.31859375 30.95046875 16.7421875 30.0234375 C16.16726563 29.02570313 15.59234375 28.02796875 15 27 C14.34257812 25.89914062 13.68515625 24.79828125 13.0078125 23.6640625 C11.30967753 20.79291864 9.65135747 17.89830087 8 15 C7.67 22.26 7.34 29.52 7 37 C4.69 37 2.38 37 0 37 C0 24.79 0 12.58 0 0 Z " fill="#181818" transform="translate(393,327)"/>
<path d="M0 0 C3.8775 -0.04125 7.755 -0.0825 11.75 -0.125 C12.96655273 -0.14320801 14.18310547 -0.16141602 15.43652344 -0.18017578 C16.40106445 -0.1851709 17.36560547 -0.19016602 18.359375 -0.1953125 C19.34389648 -0.20578613 20.32841797 -0.21625977 21.34277344 -0.22705078 C24.12682619 0.01083686 25.69152345 0.44717584 28 2 C30.33299736 5.96609551 31.13706277 8.1014774 30.4375 12.6875 C28.99600023 16.00921686 27.8720542 17.82420136 25 20 C24.01 20 23.02 20 22 20 C22 20.66 22 21.32 22 22 C22.58265625 22.2165625 23.1653125 22.433125 23.765625 22.65625 C26.74068202 24.44544513 27.93794012 26.55733865 29.75 29.5 C30.67039062 30.96953125 30.67039062 30.96953125 31.609375 32.46875 C33 35 33 35 33 37 C29.77590612 37.73885485 27.20168065 37.91052433 24 37 C20.74205063 33.69243719 18.39123347 29.96245162 16 26 C13.98538237 22.31297122 13.98538237 22.31297122 8 21 C8 26.28 8 31.56 8 37 C5.36 37 2.72 37 0 37 C0 24.79 0 12.58 0 0 Z M8 6 C8 8.97 8 11.94 8 15 C9.95803507 15.05389087 11.91648909 15.09274217 13.875 15.125 C14.96554687 15.14820313 16.05609375 15.17140625 17.1796875 15.1953125 C20.1371051 15.30060534 20.1371051 15.30060534 22 13 C22.41666667 10.5 22.41666667 10.5 22 8 C18.57905758 5.71937172 17.31812778 5.78074993 13.3125 5.875 C12.31863281 5.89304687 11.32476563 5.91109375 10.30078125 5.9296875 C9.54152344 5.95289063 8.78226563 5.97609375 8 6 Z " fill="#141414" transform="translate(911,327)"/>
<path d="M0 0 C3.70791544 -0.14592789 7.41508726 -0.23427895 11.125 -0.3125 C12.69507813 -0.3753418 12.69507813 -0.3753418 14.296875 -0.43945312 C23.02804859 -0.57760461 23.02804859 -0.57760461 26.625 2.33203125 C32.06277804 8.44058783 32.56450532 13.83355722 32.34375 21.8359375 C31.87543676 26.14654799 30.98804375 29.77231365 28 33 C22.20698656 37.23364572 17.67228 37.54197004 10.625 37.3125 C9.25408203 37.29799805 9.25408203 37.29799805 7.85546875 37.28320312 C1.16894605 37.16894605 1.16894605 37.16894605 0 36 C-0.08855161 33.3337397 -0.11524673 30.69352886 -0.09765625 28.02734375 C-0.0962413 27.22970108 -0.09482635 26.43205841 -0.09336853 25.61024475 C-0.08775316 23.05262565 -0.07519812 20.49509282 -0.0625 17.9375 C-0.05748698 16.20768355 -0.05292373 14.47786574 -0.04882812 12.74804688 C-0.03777875 8.49866447 -0.02050386 4.24934688 0 0 Z M9 6 C9 13.92 9 21.84 9 30 C18.16242725 30.9624412 18.16242725 30.9624412 21.5625 28.1875 C24.70120803 23.41120518 24.33458674 18.51187627 24 13 C23.5048792 10.04023328 23.5048792 10.04023328 22 8 C17.55965776 5.25743567 14.62541465 6 9 6 Z " fill="#131313" transform="translate(723,327)"/>
<path d="M0 0 C9.24 0 18.48 0 28 0 C28 1.98 28 3.96 28 6 C21.4 6 14.8 6 8 6 C8 8.64 8 11.28 8 14 C13.94 14 19.88 14 26 14 C26 16.31 26 18.62 26 21 C20.06 21 14.12 21 8 21 C8 23.97 8 26.94 8 30 C14.6 30 21.2 30 28 30 C28 32.31 28 34.62 28 37 C18.76 37 9.52 37 0 37 C0 24.79 0 12.58 0 0 Z " fill="#1A1A1A" transform="translate(672,327)"/>
<path d="M0 0 C8.91 0 17.82 0 27 0 C27 1.98 27 3.96 27 6 C20.73 6 14.46 6 8 6 C8 8.64 8 11.28 8 14 C13.94 14 19.88 14 26 14 C26 15.98 26 17.96 26 20 C25 21 25 21 21.18359375 21.09765625 C19.60153318 21.09098089 18.01948841 21.07901875 16.4375 21.0625 C15.63119141 21.05798828 14.82488281 21.05347656 13.99414062 21.04882812 C11.99606244 21.03700518 9.99802217 21.01906914 8 21 C8 23.97 8 26.94 8 30 C14.6 30 21.2 30 28 30 C28 32.31 28 34.62 28 37 C18.76 37 9.52 37 0 37 C0 24.79 0 12.58 0 0 Z " fill="#181818" transform="translate(998,327)"/>
<path d="M0 0 C2.64 0.33 5.28 0.66 8 1 C9.51782707 4.65957697 11.02914551 8.32177173 12.53491211 11.98632812 C13.29536938 13.83339169 14.06071526 15.67844015 14.82617188 17.5234375 C17.59286327 24.26610262 20.10028078 30.96016302 22 38 C19.36 38 16.72 38 14 38 C11 32.25 11 32.25 11 30 C6.05 30.33 1.1 30.66 -4 31 C-4.99 33.31 -5.98 35.62 -7 38 C-9.64 38 -12.28 38 -15 38 C-12.82883918 30.13439084 -9.99442162 22.62248521 -6.9375 15.0625 C-6.49083984 13.94037109 -6.04417969 12.81824219 -5.58398438 11.66210938 C-2.26059382 3.39089073 -2.26059382 3.39089073 0 0 Z M3 11 C2.32645501 12.43429001 1.66140299 13.87257057 1 15.3125 C0.62875 16.11300781 0.2575 16.91351563 -0.125 17.73828125 C-1.18040667 20.06213959 -1.18040667 20.06213959 -1 23 C1.97 23 4.94 23 8 23 C7.54965877 21.37276701 7.08944646 19.74826336 6.625 18.125 C6.36976563 17.22007812 6.11453125 16.31515625 5.8515625 15.3828125 C5.1395685 12.85430274 5.1395685 12.85430274 3 11 Z " fill="#171717" transform="translate(822,326)"/>
<path d="M0 0 C2.97 0 5.94 0 9 0 C10.36912469 3.26113116 11.72817643 6.52636363 13.08300781 9.79345703 C13.76014055 11.42283021 14.43951494 13.05127223 15.12011719 14.67919922 C16.35611992 17.63815999 17.58472971 20.60011499 18.8125 23.5625 C19.22169678 24.53848145 19.63089355 25.51446289 20.05249023 26.52001953 C20.62398804 27.90423096 20.62398804 27.90423096 21.20703125 29.31640625 C21.5522583 30.14599854 21.89748535 30.97559082 22.25317383 31.83032227 C23 34 23 34 23 37 C20.36 37 17.72 37 15 37 C14.01 34.69 13.02 32.38 12 30 C7.05 29.67 2.1 29.34 -3 29 C-3.99 32.465 -3.99 32.465 -5 36 C-6 37 -6 37 -7.84765625 37.09765625 C-9.8984375 37.06510417 -11.94921875 37.03255208 -14 37 C-11.75577043 28.68350241 -8.60997072 20.82296814 -5.3125 12.875 C-4.79578987 11.6199703 -4.27951093 10.36476298 -3.76367188 9.109375 C-2.51332553 6.07115023 -1.25868796 3.0347762 0 0 Z M4 10 C3.3291288 11.6232687 2.66342971 13.24867578 2 14.875 C1.62875 15.77992188 1.2575 16.68484375 0.875 17.6171875 C-0.11490226 19.88983858 -0.11490226 19.88983858 0 22 C2.97 22 5.94 22 9 22 C8.54965877 20.37276701 8.08944646 18.74826336 7.625 17.125 C7.36976563 16.22007812 7.11453125 15.31515625 6.8515625 14.3828125 C6.1395685 11.85430274 6.1395685 11.85430274 4 10 Z " fill="#181818" transform="translate(545,327)"/>
<path d="M0 0 C3.526875 -0.0825 7.05375 -0.165 10.6875 -0.25 C11.79053467 -0.28641602 12.89356934 -0.32283203 14.0300293 -0.36035156 C21.26419003 -0.44240003 21.26419003 -0.44240003 25.14453125 1.890625 C28.45462198 5.65367551 28.3343194 8.65237913 28.28515625 13.51953125 C27.88136394 17.03197119 26.61222617 18.67802118 24 21 C20.56288407 23.19423026 17.77842831 23.21257453 13.75 23.125 C12.67234375 23.10695313 11.5946875 23.08890625 10.484375 23.0703125 C9.66453125 23.04710937 8.8446875 23.02390625 8 23 C8.01160156 23.92683594 8.02320313 24.85367187 8.03515625 25.80859375 C8.04417969 27.00613281 8.05320312 28.20367187 8.0625 29.4375 C8.07410156 30.63246094 8.08570313 31.82742188 8.09765625 33.05859375 C8 36 8 36 7 37 C4.69 37 2.38 37 0 37 C0 24.79 0 12.58 0 0 Z M8 6 C8 9.3 8 12.6 8 16 C9.423125 16.061875 10.84625 16.12375 12.3125 16.1875 C13.11300781 16.22230469 13.91351562 16.25710938 14.73828125 16.29296875 C17.0620179 16.17502203 17.0620179 16.17502203 18.8125 14.6875 C20.34075223 12.90572423 20.34075223 12.90572423 19.6875 9.8125 C19.460625 8.884375 19.23375 7.95625 19 7 C16.24921116 6.08307039 14.64051087 5.89113917 11.8125 5.9375 C10.554375 5.958125 9.29625 5.97875 8 6 Z " fill="#131313" transform="translate(620,327)"/>
<path d="M0 0 C3.7489985 2.98389676 4.59775642 4.95710787 6.0625 9.4375 C3.4225 10.0975 0.7825 10.7575 -1.9375 11.4375 C-2.22625 10.798125 -2.515 10.15875 -2.8125 9.5 C-3.76573451 7.28543921 -3.76573451 7.28543921 -5.9375 6.4375 C-10.84961241 5.93044382 -10.84961241 5.93044382 -15.12890625 8.0234375 C-18.66267686 12.74021987 -17.704948 18.83380638 -16.9375 24.4375 C-15.58302859 27.31852731 -14.79580406 27.78603543 -11.9375 29.4375 C-9.39382332 30.18771244 -9.39382332 30.18771244 -6.9375 29.4375 C-4.3605235 27.3022909 -2.80036526 25.23179788 -0.9375 22.4375 C1.3725 23.0975 3.6825 23.7575 6.0625 24.4375 C4.783914 29.43560891 3.02064465 32.12370448 -0.9375 35.4375 C-4.95832978 37.65953751 -8.38835634 37.90012478 -12.9375 37.4375 C-18.08058241 35.65572051 -22.29401482 33.31778032 -24.9375 28.4375 C-26.91848796 21.38023039 -27.95438048 14.3144066 -24.9375 7.4375 C-22.68680598 3.90938505 -20.21584694 1.25422166 -16.6875 -1 C-11.02382204 -2.15847958 -5.30851888 -2.62608259 0 0 Z " fill="#151515" transform="translate(504.9375,327.5625)"/>
<path d="M0 0 C3.16956691 2.26397637 4.82987519 4.42836036 6.625 7.875 C6.295 8.865 5.965 9.855 5.625 10.875 C3.315 11.205 1.005 11.535 -1.375 11.875 C-1.66375 11.235625 -1.9525 10.59625 -2.25 9.9375 C-3.20323451 7.72293921 -3.20323451 7.72293921 -5.375 6.875 C-10.10449066 6.38011808 -10.10449066 6.38011808 -14.25 8.25 C-16.4879431 11.48258447 -16.56714065 13.77717239 -16.625 17.6875 C-16.65078125 18.72519531 -16.6765625 19.76289063 -16.703125 20.83203125 C-16.32871305 24.30425633 -15.51378068 26.13146064 -13.375 28.875 C-9.96971004 30.12338381 -9.96971004 30.12338381 -6.375 29.875 C-3.64236501 27.80706001 -2.28071371 25.73357056 -0.375 22.875 C1.935 23.535 4.245 24.195 6.625 24.875 C5.4219868 31.01036732 3.81692613 33.34449023 -1.375 36.875 C-3.3125 37.6875 -3.3125 37.6875 -5.375 37.875 C-6.98375 38.0296875 -6.98375 38.0296875 -8.625 38.1875 C-13.27384756 37.80009604 -16.57655045 36.57520218 -20.375 33.875 C-25.93128875 26.89402183 -25.93793458 20.50666354 -25.375 11.875 C-24.19816309 6.17033296 -20.97024759 3.12996704 -16.375 -0.125 C-10.9465082 -1.93449727 -5.4118739 -1.80395797 0 0 Z " fill="#1D1D1D" transform="translate(281.375,327.125)"/>
<path d="M0 0 C9.9 0 19.8 0 30 0 C30 1.98 30 3.96 30 6 C26.37 6 22.74 6 19 6 C19 16.23 19 26.46 19 37 C16.36 37 13.72 37 11 37 C11 26.77 11 16.54 11 6 C7.37 6 3.74 6 0 6 C0 4.02 0 2.04 0 0 Z " fill="#121212" transform="translate(859,327)"/>
<path d="M0 0 C2.64 0 5.28 0 8 0 C8 9.9 8 19.8 8 30 C13.94 30 19.88 30 26 30 C26 32.31 26 34.62 26 37 C17.42 37 8.84 37 0 37 C0 24.79 0 12.58 0 0 Z " fill="#191919" transform="translate(312,327)"/>
<path d="M0 0 C2.64 0 5.28 0 8 0 C8 12.21 8 24.42 8 37 C5.36 37 2.72 37 0 37 C0 24.79 0 12.58 0 0 Z " fill="#171717" transform="translate(778,327)"/>
<path d="M0 0 C2.64 0 5.28 0 8 0 C8 12.21 8 24.42 8 37 C5.69 37 3.38 37 1 37 C0 36 0 36 -0.11352539 32.58178711 C-0.11336628 31.06363012 -0.10767226 29.54546771 -0.09765625 28.02734375 C-0.0962413 27.22970108 -0.09482635 26.43205841 -0.09336853 25.61024475 C-0.08775316 23.05262565 -0.07519812 20.49509282 -0.0625 17.9375 C-0.05748698 16.20768355 -0.05292373 14.47786574 -0.04882812 12.74804688 C-0.03777875 8.49866447 -0.02050386 4.24934688 0 0 Z " fill="#1C1C1C" transform="translate(965,327)"/>
<path d="M0 0 C2.64 0 5.28 0 8 0 C8.0246501 5.10863896 8.04283607 10.21724359 8.05493164 15.32592773 C8.05997204 17.06519168 8.0668043 18.80445136 8.07543945 20.54370117 C8.08751792 23.03825937 8.09323108 25.53276173 8.09765625 28.02734375 C8.10281754 28.80963852 8.10797882 29.59193329 8.11329651 30.39793396 C8.11349226 32.26567114 8.06199694 34.13329204 8 36 C7.505 36.495 7.505 36.495 7 37 C4.69 37 2.38 37 0 37 C0 24.79 0 12.58 0 0 Z " fill="#191919" transform="translate(361,327)"/>
<path d="M0 0 C2.31 0.33 4.62 0.66 7 1 C7 13.21 7 25.42 7 38 C4.69 38 2.38 38 0 38 C0 25.46 0 12.92 0 0 Z " fill="#060606" transform="translate(448,326)"/>
<path d="M0 0 C2.31 0.66 4.62 1.32 7 2 C5.721414 6.99810891 3.95814465 9.68620448 0 13 C-4.02082978 15.22203751 -7.45085634 15.46262478 -12 15 C-16.25804372 13.40813467 -20.02084029 11.50327114 -23 8 C-23 7.34 -23 6.68 -23 6 C-20.69 6.66 -18.38 7.32 -16 8 C-15.67 6.68 -15.34 5.36 -15 4 C-14.1646875 4.7425 -14.1646875 4.7425 -13.3125 5.5 C-10.5269428 7.30684791 -9.25915277 7.57035173 -6 7 C-3.4230235 4.8647909 -1.86286526 2.79429788 0 0 Z " fill="#1E1E1E" transform="translate(504,350)"/>
<path d="M0 0 C2.31 0.66 4.62 1.32 7 2 C6.21880325 5.6929301 5.44167963 8.42581647 3.125 11.4375 C-1.7549224 13.8774612 -6.64372577 13.30753728 -12 13 C-12 11.35 -12 9.7 -12 8 C-10.7625 7.79375 -9.525 7.5875 -8.25 7.375 C-4.91690316 6.57127452 -3.38034194 5.76364124 -1.5 2.875 C-1.005 1.92625 -0.51 0.9775 0 0 Z " fill="#151515" transform="translate(281,350)"/>
<path d="M0 0 C3.47570408 1.07688791 6.16168569 2.6018115 8.09375 5.82421875 C8.9375 7.75 8.9375 7.75 10 11 C7.36 11.66 4.72 12.32 2 13 C1.64808594 12.04867188 1.64808594 12.04867188 1.2890625 11.078125 C0.17709092 8.81749261 0.17709092 8.81749261 -2.1640625 8.171875 C-2.97617187 8.03265625 -3.78828125 7.8934375 -4.625 7.75 C-5.44226563 7.60046875 -6.25953125 7.4509375 -7.1015625 7.296875 C-7.72804688 7.19890625 -8.35453125 7.1009375 -9 7 C-7.68 6.34 -6.36 5.68 -5 5 C-5 4.01 -5 3.02 -5 2 C-7.64 2 -10.28 2 -13 2 C-8.71939862 -0.85373425 -5.02204924 -0.60203625 0 0 Z " fill="#262626" transform="translate(501,326)"/>
<path d="M0 0 C4.18659858 3.82774727 7.37820862 7.94607874 10 13 C10 13.66 10 14.32 10 15 C6.84005495 15.56879011 4.13414169 15.7797133 1 15 C-1.59844343 12.30706772 -3.3166991 9.32699471 -5 6 C-2.25 1.125 -2.25 1.125 0 0 Z " fill="#1E1E1E" transform="translate(934,349)"/>
<path d="M0 0 C0.99 0.495 0.99 0.495 2 1 C2.19683437 5.58298265 2.38085996 10.16639198 2.5625 14.75 C2.61857422 16.05195313 2.67464844 17.35390625 2.73242188 18.6953125 C2.78076172 19.94570313 2.82910156 21.19609375 2.87890625 22.484375 C2.9260376 23.63647461 2.97316895 24.78857422 3.02172852 25.97558594 C3 29 3 29 2 33 C8.27 33 14.54 33 21 33 C21 33.33 21 33.66 21 34 C17.68751813 34.02888146 14.37506833 34.04675799 11.0625 34.0625 C10.11697266 34.07087891 9.17144531 34.07925781 8.19726562 34.08789062 C6.84858398 34.09272461 6.84858398 34.09272461 5.47265625 34.09765625 C4.22367554 34.10551147 4.22367554 34.10551147 2.94946289 34.11352539 C1 34 1 34 0 33 C-0.08843793 30.55169574 -0.11528752 28.13179401 -0.09765625 25.68359375 C-0.0962413 24.95253922 -0.09482635 24.22148468 -0.09336853 23.46827698 C-0.08775408 21.12464368 -0.07519922 18.78110461 -0.0625 16.4375 C-0.05748686 14.85221492 -0.05292363 13.26692834 -0.04882812 11.68164062 C-0.03777997 7.7877239 -0.02050572 3.89387795 0 0 Z " fill="#5C5C5C" transform="translate(723,330)"/>
<path d="M0 0 C0.33 0 0.66 0 1 0 C1.02888146 3.31248187 1.04675799 6.62493167 1.0625 9.9375 C1.07087891 10.88302734 1.07925781 11.82855469 1.08789062 12.80273438 C1.09272461 14.15141602 1.09272461 14.15141602 1.09765625 15.52734375 C1.10551147 16.77632446 1.10551147 16.77632446 1.11352539 18.05053711 C1 20 1 20 0 21 C-7.16708667 21.63412495 -14.01026926 20.48830769 -21 19 C-21 18.67 -21 18.34 -21 18 C-14.4 18.33 -7.8 18.66 -1 19 C-0.67 12.73 -0.34 6.46 0 0 Z " fill="#5F5F5F" transform="translate(563,247)"/>
<path d="M0 0 C0.66 0 1.32 0 2 0 C2 0.66 2 1.32 2 2 C3.32 1.67 4.64 1.34 6 1 C6.66 3.31 7.32 5.62 8 8 C1.84765625 8.09765625 1.84765625 8.09765625 0 8 C-1 7 -1 7 -1.125 4 C-1 1 -1 1 0 0 Z " fill="#1D1D1D" transform="translate(836,356)"/>
<path d="M0 0 C1.67542976 0.28604898 3.34385343 0.61781233 5 1 C5.33 1.99 5.66 2.98 6 4 C4.02 4.33 2.04 4.66 0 5 C-0.5625 3.0625 -0.5625 3.0625 -1 1 C-0.67 0.67 -0.34 0.34 0 0 Z " fill="#030303" transform="translate(492,327)"/>
<path d="M0 0 C0 3.31439938 -0.16781344 4.2915503 -2 7 C-4.24096344 8.81140232 -6.58768867 10.42619261 -9 12 C-7.55575365 8.76138697 -5.74227753 6.38030837 -3.375 3.75 C-2.74335937 3.04359375 -2.11171875 2.3371875 -1.4609375 1.609375 C-0.97882812 1.07828125 -0.49671875 0.5471875 0 0 Z " fill="#373737" transform="translate(978,173)"/>
<path d="M0 0 C3.45925163 1.2491742 6.14693203 2.67527795 9 5 C6.75 5.75 6.75 5.75 4 6 C1.6875 4.1875 1.6875 4.1875 0 2 C0 1.34 0 0.68 0 0 Z " fill="#333333" transform="translate(481,356)"/>
<path d="M0 0 C0.66 0.33 1.32 0.66 2 1 C-0.57784846 3.64752004 -2.91648098 5.94432065 -6 8 C-4.73058503 4.08597051 -3.48832306 2.20927127 0 0 Z " fill="#3C3C3C" transform="translate(581,114)"/>
<path d="M0 0 C1.65 0.99 3.3 1.98 5 3 C2 5 2 5 -0.6875 4.625 C-1.450625 4.41875 -2.21375 4.2125 -3 4 C-2.01 2.68 -1.02 1.36 0 0 Z " fill="#3B3B3B" transform="translate(386,235)"/>
<path d="M0 0 C0.66 0 1.32 0 2 0 C1.25 2.4375 1.25 2.4375 0 5 C-2.125 5.8125 -2.125 5.8125 -4 6 C-1.125 1.125 -1.125 1.125 0 0 Z " fill="#393939" transform="translate(442,175)"/>
</svg>
