<?xml version="1.0" encoding="UTF-8"?>
<svg version="1.1" xmlns="http://www.w3.org/2000/svg" width="1300" height="400">
<path d="M0 0 C18.93675284 0.67151606 32.97445229 8.41895099 46 22 C49.65843898 26.33706341 53.45914299 30.91828598 56 36 C57.22074219 35.72285156 58.44148438 35.44570312 59.69921875 35.16015625 C69.13494379 33.06461014 78.30635268 31.30169674 88 31 C89.28970703 30.94005859 89.28970703 30.94005859 90.60546875 30.87890625 C107.28986887 30.4498067 123.610837 33.57048509 139 40 C139.22558594 39.13375 139.45117188 38.2675 139.68359375 37.375 C141.18010115 33.53825699 143.2714791 30.9398183 146.0625 28 C146.55419678 27.47599609 147.04589355 26.95199219 147.55249023 26.41210938 C157.24889231 16.34102014 168.89712435 11.07107649 182.91308594 10.70825195 C193.26309736 10.60832567 203.30227534 11.83452429 212 18 C212.3125 20.6875 212.3125 20.6875 212 23 C209.69 23.66 207.38 24.32 205 25 C205.85271484 25.63615234 205.85271484 25.63615234 206.72265625 26.28515625 C209.18078445 28.15234879 211.59709304 30.06229583 214 32 C214.63035156 32.5053125 215.26070313 33.010625 215.91015625 33.53125 C221.74666363 38.74289213 225.12561782 45.82714963 228 53 C228 54.32 228 55.64 228 57 C225.03 57 222.06 57 219 57 C219.598125 58.010625 220.19625 59.02125 220.8125 60.0625 C225.25124833 68.9242004 227.46227258 80.68863711 225.5 90.5 C225.335 90.995 225.17 91.49 225 92 C221.13304097 91.46292236 219.02939501 90.41445371 216 88 C215.96261719 89.07378906 215.92523438 90.14757812 215.88671875 91.25390625 C215.82100888 92.6901362 215.75456332 94.12633262 215.6875 95.5625 C215.66494141 96.26697266 215.64238281 96.97144531 215.61914062 97.69726562 C215.36252691 102.75955442 214.23233598 106.44555581 212 111 C210.56260487 111.02712066 209.12506137 111.04645067 207.6875 111.0625 C206.88699219 111.07410156 206.08648437 111.08570313 205.26171875 111.09765625 C203 111 203 111 200 110 C200 113.63 200 117.26 200 121 C198.741875 121.020625 197.48375 121.04125 196.1875 121.0625 C195.47980469 121.07410156 194.77210938 121.08570313 194.04296875 121.09765625 C192 121 192 121 189 120 C189.165 121.258125 189.33 122.51625 189.5 123.8125 C191.62215765 143.58854881 188.54819774 163.76599735 176.0078125 179.66796875 C168.50520817 188.38208312 168.50520817 188.38208312 165.18969727 189.74316406 C162.75605359 190.91883733 161.54348405 191.7550818 160 194 C159.5341356 199.40788576 160.32434283 204.651424 161.0625 210 C161.42019104 212.89436765 161.75926018 215.79082057 162.09765625 218.6875 C162.18319763 219.39811081 162.26873901 220.10872162 162.35687256 220.84086609 C163.55381765 231.16440597 163.08257922 241.3613659 162.125 251.6875 C162.04636719 252.66138672 161.96773437 253.63527344 161.88671875 254.63867188 C161.80292969 255.56615234 161.71914062 256.49363281 161.6328125 257.44921875 C161.55949707 258.27768311 161.48618164 259.10614746 161.41064453 259.9597168 C161 262 161 262 159 264 C156.6875 264.01171875 156.6875 264.01171875 154 263 C152.13352434 260.96145861 150.57987765 259.05148286 149 256.8125 C148.16790621 255.67227148 147.33457558 254.53294451 146.5 253.39453125 C146.09394531 252.83459473 145.68789062 252.2746582 145.26953125 251.69775391 C143.28333664 249.04160057 141.14735699 246.52697903 139 244 C134.99260849 245.33579717 132.04033457 247.31502829 128.74609375 249.87890625 C126.84326204 251.10063489 125.20722825 251.57014592 123 252 C124.36621277 247.3067406 126.32419056 243.55942383 128.9375 239.4375 C129.62714844 238.34308594 130.31679687 237.24867188 131.02734375 236.12109375 C132.00380859 234.57615234 132.00380859 234.57615234 133 233 C133.47566406 232.04222656 133.95132813 231.08445312 134.44140625 230.09765625 C136 228 136 228 138.39453125 227.35546875 C142.15786107 228.2864274 143.36143626 230.26768652 145.6875 233.3125 C146.45449219 234.29863281 147.22148437 235.28476562 148.01171875 236.30078125 C149.38689506 238.1676709 150.7138146 240.0707219 152 242 C153.01889919 238.94330244 153.06996288 237.09752246 152.94921875 233.9140625 C152.91111084 232.90601563 152.87300293 231.89796875 152.83374023 230.859375 C152.78548096 229.79203125 152.73722168 228.7246875 152.6875 227.625 C152.64117432 226.54476562 152.59484863 225.46453125 152.54711914 224.3515625 C152.18285237 216.78663379 151.4956572 209.43472318 150 202 C149.61070312 202.71542969 149.22140625 203.43085938 148.8203125 204.16796875 C145.5885214 209.92413125 142.25665903 215.09188193 138.125 220.25 C134.34545116 224.96869642 131.25850053 229.81299164 128.375 235.125 C120.66650138 249.28353608 120.66650138 249.28353608 116 254 C112 254 112 254 110.44775391 252.47460938 C109.96226074 251.77142578 109.47676758 251.06824219 108.9765625 250.34375 C108.43 249.56773437 107.8834375 248.79171875 107.3203125 247.9921875 C106.76085937 247.16976562 106.20140625 246.34734375 105.625 245.5 C103.95875105 243.10963351 102.2904415 240.72072282 100.62109375 238.33251953 C99.56792477 236.81716164 98.52800872 235.29247521 97.50390625 233.75732422 C94.14461539 228.92106515 91.13237427 226.43558457 85.75 224.125 C84.32778078 223.46054371 82.90726877 222.79242384 81.48828125 222.12109375 C80.75303223 221.77804199 80.0177832 221.43499023 79.26025391 221.08154297 C66.58453815 215.01614863 55.05269488 207.63964371 44 199 C43.04867187 198.27296875 42.09734375 197.5459375 41.1171875 196.796875 C27.44905177 186.0377011 14.74546278 173.13103878 6 158 C2.60781692 162.96432947 -0.77465416 168.02989393 -2 174 C-0.67680387 179.9394143 2.41569666 184.17254919 6 189 C6.87843981 190.26976259 7.75343964 191.54191182 8.625 192.81640625 C14.54868867 201.31046541 21.20585628 209.19693131 28 217 C28.57878906 217.67933594 29.15757813 218.35867188 29.75390625 219.05859375 C38.40244402 229.13771671 47.5430039 238.80866422 57.1875 247.9375 C57.82300781 248.54674316 58.45851563 249.15598633 59.11328125 249.78369141 C62.48489335 253.17458174 62.48489335 253.17458174 67 254 C69.03327623 251.95710167 69.03327623 251.95710167 71.0625 249.25 C71.85398437 248.25871094 72.64546875 247.26742187 73.4609375 246.24609375 C74.75088934 244.6058403 76.03099123 242.95943623 77.29785156 241.30126953 C78.57964854 239.62629213 79.88247458 237.96940597 81.1875 236.3125 C81.96480469 235.29800781 82.74210938 234.28351563 83.54296875 233.23828125 C86 231 86 231 88.96875 230.25 C93.33660953 231.33070751 94.96750279 234.10377144 97.3125 237.6875 C97.75400391 238.31333984 98.19550781 238.93917969 98.65039062 239.58398438 C100.98689393 243.00107574 102.57308383 245.78722348 103 250 C101.56068883 249.54738642 100.12361001 249.08767021 98.6875 248.625 C97.88699219 248.36976563 97.08648437 248.11453125 96.26171875 247.8515625 C94 247 94 247 91 245 C88.10093334 245.1473103 87.05816815 245.94587738 84.921875 247.93359375 C84.20515625 248.75988281 83.4884375 249.58617187 82.75 250.4375 C81.97140625 251.33210937 81.1928125 252.22671875 80.390625 253.1484375 C77.37796377 256.74197132 74.42963334 260.38016871 71.53125 264.06640625 C69.2373851 266.96299585 69.2373851 266.96299585 66.34375 267.4140625 C61.78005465 266.848932 59.61550107 264.5056585 56.5 261.375 C55.55906494 260.4617395 55.55906494 260.4617395 54.59912109 259.5300293 C53.18479148 258.14998544 51.77820238 256.76198051 50.37792969 255.36767578 C47.74838367 252.74946867 45.0969194 250.15444891 42.4453125 247.55859375 C40.98463099 246.12046062 39.52573242 244.68055763 38.06811523 243.23931885 C36.66478613 241.85183684 35.25918335 240.46665565 33.85351562 239.08154297 C28.53993347 233.77278433 23.6312284 228.30130484 18.96142578 222.41674805 C17.14309135 220.17630834 15.24498272 218.08274183 13.25 216 C4.52059559 206.24052587 -2.86831238 194.83508061 -8.8125 183.1875 C-9.14378906 182.54868896 -9.47507813 181.90987793 -9.81640625 181.25170898 C-11.74626154 177.27825968 -12.3501874 174.38039649 -12 170 C-10.85424805 167.11914063 -10.85424805 167.11914063 -9.26171875 164.15625 C-8.68873047 163.07472656 -8.11574219 161.99320313 -7.52539062 160.87890625 C-6.91888672 159.76386719 -6.31238281 158.64882812 -5.6875 157.5 C-4.50377618 155.28131939 -3.32017839 153.06257154 -2.13671875 150.84375 C-1.60780029 149.86599609 -1.07888184 148.88824219 -0.53393555 147.88085938 C2.16279786 142.81616827 4.3790529 138.23263044 5.6875 132.625 C5.93886719 131.56539062 6.19023438 130.50578125 6.44921875 129.4140625 C6.72185547 128.21910156 6.72185547 128.21910156 7 127 C6.15695313 127.32613281 5.31390625 127.65226562 4.4453125 127.98828125 C0.74071218 129.07614007 -2.27355536 129.2332515 -6.125 129.1875 C-7.92324219 129.17783203 -7.92324219 129.17783203 -9.7578125 129.16796875 C-12.37053278 129.03261095 -14.51954118 128.77128695 -17 128 C-16.5251065 123.88425629 -15.9789756 120.63616656 -14 117 C-15.0621875 116.97421875 -16.124375 116.9484375 -17.21875 116.921875 C-25.05644405 116.63944392 -31.2335617 116.3699914 -38 112 C-38.0544207 109.31222198 -38.09387266 106.62556788 -38.125 103.9375 C-38.15013672 102.80924805 -38.15013672 102.80924805 -38.17578125 101.65820312 C-38.21865121 96.70672291 -37.58399375 92.69585549 -36 88 C-36.80824219 88.3609375 -37.61648437 88.721875 -38.44921875 89.09375 C-39.51785156 89.5578125 -40.58648437 90.021875 -41.6875 90.5 C-43.27111328 91.19609375 -43.27111328 91.19609375 -44.88671875 91.90625 C-47.85627816 92.94950801 -49.89195063 93.23065301 -53 93 C-53.78799764 79.42892954 -50.63748645 69.20948011 -43 58 C-42.505 57.505 -42.505 57.505 -42 57 C-46.04141194 56.36605303 -49.9065307 55.87595548 -54 56 C-53.845337 46.56555713 -50.00011592 40.25337001 -43.59375 33.44140625 C-38.75601199 28.8948284 -34.10398222 25.59984428 -28 23 C-30.31 21.68 -32.62 20.36 -35 19 C-35 17.68 -35 16.36 -35 15 C-21.85585038 8.12767812 -9.58047078 6.83993025 5 9 C4.175 8.2575 3.35 7.515 2.5 6.75 C0 4 0 4 0 0 Z M-3 31 C-3.98613281 31.35191406 -3.98613281 31.35191406 -4.9921875 31.7109375 C-12.82113768 35.03138719 -18.24825168 41.42452337 -21.5 49.1875 C-25.23677997 61.04554845 -23.30171849 72.7392863 -17.8125 83.625 C-11.49151431 94.18476432 -1.73349014 100.3552688 9.90234375 103.87890625 C11.91816545 104.33429725 13.95782008 104.68311001 16 105 C22.51823809 92.52231344 22.51823809 92.52231344 26 79 C23.32752366 76.65712582 23.32752366 76.65712582 20 76 C20 74.35 20 72.7 20 71 C20.70125 70.731875 21.4025 70.46375 22.125 70.1875 C25.1649824 68.9318551 28.0727774 67.49764877 31 66 C29.91658882 62.65127454 28.7295519 60.67678154 26.4375 57.9375 C24 55 24 55 23 51 C27.95 51.99 32.9 52.98 38 54 C34.33585058 43.00755174 28.76102521 36.63092095 18.625 31.1875 C11.1953239 28.75364059 4.38051976 28.28086114 -3 31 Z M163 42 C160.67954609 45.18066795 158.42236935 48.31718475 157 52 C158.07213217 55.76370874 161.05988526 58.63663163 163.5 61.625 C172.33967246 72.80979225 179.03112153 85.6624841 184 99 C191.11266423 97.75133228 196.67425677 90.9579508 200.6796875 85.2890625 C205.70554174 76.57559923 207.7528952 66.92721687 205.26953125 57.11328125 C202.3027163 48.23705531 198.22444935 41.69968535 190 37 C180.67947504 32.83551013 170.14574213 34.66621203 163 42 Z M132 108 C125.98815235 116.99624935 125.76392645 125.78945451 125.70483398 136.29223633 C125.69329165 137.72072233 125.67280391 139.14916444 125.64331055 140.57739258 C125.60048576 142.65475385 125.58445026 144.73084511 125.57421875 146.80859375 C125.55963623 148.04407959 125.54505371 149.27956543 125.5300293 150.55249023 C126.10982254 154.80561249 127.40556602 156.64678316 130 160 C131.25117929 156.24646214 131.06617429 152.79760301 130.9921875 148.89453125 C130.97465836 147.25456362 130.95775133 145.61458924 130.94140625 143.97460938 C130.91056625 141.39849011 130.87518462 138.82271167 130.82861328 136.24682617 C130.78593313 133.75435325 130.76273168 131.2622724 130.7421875 128.76953125 C130.72356659 128.01090286 130.70494568 127.25227448 130.6857605 126.47065735 C130.65385729 119.72405874 132.0151392 114.27532823 136.5625 109.0625 C140.45850425 105.76588102 143.06048714 105.75978718 148.125 105.4375 C149.40632813 105.35371094 150.68765625 105.26992187 152.0078125 105.18359375 C152.99523437 105.12300781 153.98265625 105.06242187 155 105 C151.19541781 101.73519835 148.57453602 101.35409159 143.6640625 101.53515625 C138.84017469 102.37686101 135.43658574 104.56341426 132 108 Z M172 106 C169.71595281 108.28404719 169.0413842 109.72213464 168.5625 112.9375 C169.09524717 116.66673022 170.45191256 118.29265709 173 121 C176.16115776 119.63016497 176.9927092 119.0109362 179 116 C178.84356616 112.32380474 178.40450487 110.49584468 176.0625 107.625 C174.17579343 105.79370926 174.17579343 105.79370926 172 106 Z M87.1875 109.1875 C84.95381265 112.05938374 84 113.38818562 84 117 C85.76058825 121.10803926 87.89196074 123.23941175 92 125 C95.19932078 124.92196779 96.65933058 124.24603903 99.25 122.375 C101.6150635 119.16527096 102 116.9723175 102 113 C100.23358828 110.19810554 98.96950178 108.48475089 96 107 C91.92644075 106.45685877 90.48460739 106.62308314 87.1875 109.1875 Z M138 155 C137.67 156.32 137.34 157.64 137 159 C140.66980204 161.91171789 140.66980204 161.91171789 145 163 C143.98823563 159.59679258 143.35156418 158.24274669 140.375 156.1875 C139.59125 155.795625 138.8075 155.40375 138 155 Z M162 157 C161.01 157.99 160.02 158.98 159 160 C159.33 160.66 159.66 161.32 160 162 C160.99 161.01 161.98 160.02 163 159 C162.67 158.34 162.34 157.68 162 157 Z M106.37109375 165.234375 C104.62276306 167.4857866 104.71574871 168.45645442 105.0625 171.25 C106.00373618 177.4181009 108.30196478 181.3396989 112.8125 185.75 C120.38858494 191.09782467 126.75760033 192.14157906 136 191 C142.70675616 189.01553516 146.99865433 185.60132476 151.0390625 179.96484375 C152.29289217 177.76565859 152.29289217 177.76565859 152 174 C150.91203125 173.96261719 149.8240625 173.92523438 148.703125 173.88671875 C135.43544971 173.33667694 124.65491903 171.13929463 112.6171875 165.20703125 C109.32840335 163.60105058 109.32840335 163.60105058 106.37109375 165.234375 Z " fill="#FDFDFD" transform="translate(81,67)"/>
<path d="M0 0 C8.91 0 17.82 0 27 0 C27.01458252 3.39692139 27.02916504 6.79384277 27.04418945 10.29370117 C27.09449717 21.50957509 27.16093508 32.72531456 27.23571491 43.94105053 C27.28066498 50.74201596 27.32008137 57.54292913 27.34643555 64.34399414 C27.37187815 70.90579537 27.4127882 77.4673821 27.46318626 84.02904701 C27.47988788 86.5340721 27.49138157 89.03913743 27.49761391 91.54421043 C27.50721888 95.04949776 27.53523626 98.55418574 27.56762695 102.05932617 C27.56619186 103.09798325 27.56475677 104.13664032 27.5632782 105.20677185 C27.62803144 112.0995745 27.62803144 112.0995745 31 118 C35.85221984 121.65799279 41.09180991 122.48173771 47 123 C48 124 48 124 48.11352539 126.13305664 C48.10828857 127.04949951 48.10305176 127.96594238 48.09765625 128.91015625 C48.09443359 129.89951172 48.09121094 130.88886719 48.08789062 131.90820312 C48.07951172 132.94912109 48.07113281 133.99003906 48.0625 135.0625 C48.05798828 136.10728516 48.05347656 137.15207031 48.04882812 138.22851562 C48.03699913 140.8190666 48.02051689 143.40950559 48 146 C32.59281237 146.73757813 18.11404156 145.63371062 6 135 C4.98660896 134.01357281 3.98125487 133.01840016 3 132 C2.58492187 132.42410156 2.16984375 132.84820312 1.7421875 133.28515625 C-9.69568505 144.17267091 -23.05669914 148.38028616 -38.55639648 148.30102539 C-53.23853181 147.93788584 -65.10159772 142.51099805 -75.71484375 132.40234375 C-86.81540333 120.7325247 -90.42060617 108.65985047 -90.5625 92.875 C-90.58461548 91.24884766 -90.58461548 91.24884766 -90.60717773 89.58984375 C-90.42126142 74.8946623 -84.72444317 62.79190285 -74.6875 52.1875 C-62.91063578 41.06600934 -49.58479887 37.36985173 -33.67529297 37.52734375 C-20.78008617 37.95663958 -11.53614612 42.97590259 -1 50 C-0.67 33.5 -0.34 17 0 0 Z M-57 74 C-63.22283712 82.40005804 -64.15586545 90.77757674 -63 101 C-60.79051942 108.6885961 -55.72443985 115.14619471 -48.87890625 119.28125 C-40.67406306 123.49658228 -32.18477375 124.45867305 -23.1015625 122.31640625 C-14.19821098 119.01531746 -8.23735509 113.45815801 -4 105 C-0.6260637 96.3241638 -1.23299269 88.14175235 -4.6796875 79.609375 C-8.74410785 71.5767336 -15.30339945 66.20394448 -23.8515625 63.390625 C-37.30886811 60.94384216 -47.77633473 64.03281488 -57 74 Z " fill="#FDFDFD" transform="translate(1207,79)"/>
<path d="M0 0 C8.91 0 17.82 0 27 0 C27.01458252 3.3613916 27.02916504 6.7227832 27.04418945 10.18603516 C27.09451886 21.2901452 27.16111117 32.39411476 27.23571491 43.49808693 C27.28064602 50.23064227 27.32006677 56.96314504 27.34643555 63.69580078 C27.37189681 70.19276737 27.41281972 76.68952987 27.46318626 83.18635178 C27.47987545 85.66543034 27.49137691 88.14454941 27.49761391 90.6236763 C27.50723234 94.09523329 27.53526606 97.56618852 27.56762695 101.03759766 C27.56619186 102.06330872 27.56475677 103.08901978 27.5632782 104.14581299 C27.63386686 109.49779402 27.94001424 113.39943585 31 118 C35.75651659 121.36459022 41.3111928 122.40741592 47 123 C48 124 48 124 48.11352539 126.13305664 C48.10828857 127.04949951 48.10305176 127.96594238 48.09765625 128.91015625 C48.09443359 129.89951172 48.09121094 130.88886719 48.08789062 131.90820312 C48.07951172 132.94912109 48.07113281 133.99003906 48.0625 135.0625 C48.05798828 136.10728516 48.05347656 137.15207031 48.04882812 138.22851562 C48.03699913 140.8190666 48.02051689 143.40950559 48 146 C30.44338818 146.83053617 16.47535917 143.79093927 3 132 C2.48953125 132.50789062 1.9790625 133.01578125 1.453125 133.5390625 C-10.99425608 145.32434884 -24.0840735 148.66083282 -40.8125 148.24609375 C-55.60232937 147.5741327 -68.04761282 140.80156697 -78 130 C-86.72489715 118.56737615 -90.17689507 107.38750297 -90.1875 93.1875 C-90.19974609 92.33607422 -90.21199219 91.48464844 -90.22460938 90.60742188 C-90.25820967 75.90169462 -84.70342884 62.78599434 -74.44921875 52.18359375 C-60.83512679 40.04599023 -46.28991146 37.04464857 -28.66308594 37.77783203 C-17.61066105 38.69988068 -10.12676682 43.61126323 -1 50 C-0.67 33.5 -0.34 17 0 0 Z M-57 74 C-62.38744668 81.82462494 -63.69109221 88.5806691 -63 98 C-61.34643568 106.74427234 -56.72705429 113.36570562 -49.4375 118.375 C-41.55115769 123.40763912 -34.15297716 124.00992094 -25 123 C-15.60013266 120.13205904 -8.97091478 114.42076728 -3.84765625 106.13671875 C-0.77534944 99.52488796 -0.86450627 90.73122387 -2.5390625 83.75390625 C-3.30851914 81.73599669 -3.30851914 81.73599669 -5 79 C-5.556875 78.01 -6.11375 77.02 -6.6875 76 C-11.45178439 69.81930674 -17.1164255 64.42753143 -25 63 C-38.46246282 61.86883449 -47.82397334 63.7214275 -57 74 Z " fill="#FDFDFD" transform="translate(673,79)"/>
<path d="M0 0 C18.4078125 -0.1546875 18.4078125 -0.1546875 37.1875 -0.3125 C41.03688232 -0.35802002 44.88626465 -0.40354004 48.85229492 -0.45043945 C53.61779785 -0.47302246 53.61779785 -0.47302246 55.86128235 -0.47721863 C57.40078497 -0.48480754 58.94026124 -0.50220438 60.47956848 -0.52787781 C75.02440432 -0.75796048 87.00379849 1.69511175 98 12 C98.93779297 12.87591797 98.93779297 12.87591797 99.89453125 13.76953125 C108.99999042 23.19239205 112.30153036 34.85822759 112.31469727 47.6315918 C112.0797376 59.93986376 107.43935941 70.9194332 99.15625 80.02734375 C88.5597898 89.95066816 76.8945158 93.35973326 62.71484375 93.1953125 C61.46048523 93.19229126 61.46048523 93.19229126 60.18078613 93.18920898 C57.0996338 93.17885781 54.01856055 93.15093659 50.9375 93.125 C44.028125 93.08375 37.11875 93.0425 30 93 C30 110.16 30 127.32 30 145 C20.1 145 10.2 145 0 145 C0 97.15 0 49.3 0 0 Z M30 26 C29.97535295 31.67830078 29.95716538 37.35657069 29.94506836 43.03491211 C29.94002744 44.96818585 29.93319481 46.90145576 29.92456055 48.8347168 C29.91248435 51.60726872 29.90676943 54.37977041 29.90234375 57.15234375 C29.89718246 58.02213364 29.89202118 58.89192352 29.88670349 59.78807068 C29.88650815 61.85905814 29.93791832 63.92994324 30 66 C32.62206734 68.62206734 40.01029361 67.22999371 43.77075195 67.24023438 C45.89771454 67.24982069 48.02366016 67.28076885 50.15039062 67.3125 C59.33628815 67.38544147 68.72948956 67.37308079 76 61 C76 60.34 76 59.68 76 59 C76.66 59 77.32 59 78 59 C81.15554846 52.78751398 83.42569811 47.80013151 81.33984375 40.77734375 C79.21040679 35.25555699 76.26938707 30.89058103 71 28 C65.56941011 26.41334296 60.66996856 25.71868481 55 25.8046875 C54.2788501 25.8075174 53.5577002 25.81034729 52.81469727 25.81326294 C50.54295253 25.82433304 48.27162273 25.84941105 46 25.875 C44.44662033 25.8850469 42.8932344 25.89416973 41.33984375 25.90234375 C37.55973938 25.92422889 33.77993968 25.95866486 30 26 Z " fill="#FDFDFD" transform="translate(345,80)"/>
<path d="M0 0 C1.2684375 0.8353125 1.2684375 0.8353125 2.5625 1.6875 C3.2225 -0.6225 3.8825 -2.9325 4.5625 -5.3125 C13.1425 -5.3125 21.7225 -5.3125 30.5625 -5.3125 C30.57708252 -3.19835693 30.59166504 -1.08421387 30.60668945 1.09399414 C30.65712509 8.09499713 30.72373583 15.09577979 30.79821491 22.0965662 C30.84285918 26.3393417 30.88212819 30.5820225 30.90893555 34.82495117 C30.93502813 38.92297728 30.97547207 43.02063779 31.02568626 47.11843681 C31.04231486 48.67840449 31.05385403 50.23843534 31.06011391 51.79847908 C31.0697991 53.99111996 31.09790857 56.18283395 31.13012695 58.37524414 C31.14123001 59.62100723 31.15233307 60.86677032 31.16377258 62.15028381 C31.7530671 67.37807106 33.10752441 71.34164758 37.0625 75 C41.8471322 77.30687624 46.30905512 77.91870319 51.5625 78.6875 C51.5625 85.9475 51.5625 93.2075 51.5625 100.6875 C38.2708507 101.15800086 24.69529719 101.18476206 13.98046875 92.0546875 C12.82914973 90.94460029 11.69339105 89.81839105 10.5625 88.6875 C7.04932961 89.0088711 5.2060054 90.65868525 2.625 92.9375 C-9.23517333 102.4806196 -23.8188111 103.58000943 -38.4375 102.6875 C-47.58810032 101.52636445 -54.84082698 97.79255286 -62.4375 92.6875 C-63.09492187 92.24792969 -63.75234375 91.80835938 -64.4296875 91.35546875 C-74.65847011 83.55425436 -81.5179785 70.20841549 -83.4375 57.6875 C-84.61268089 40.67787485 -82.80808693 26.7585009 -72.4375 12.6875 C-72.0146875 12.09324219 -71.591875 11.49898437 -71.15625 10.88671875 C-54.52056372 -10.86331703 -22.4567381 -12.45612312 0 0 Z M-51.4375 30.6875 C-56.0833331 37.74770306 -57.07180675 44.41885839 -56.4375 52.6875 C-54.3523799 61.67191455 -48.77350271 68.33748697 -41.4375 73.6875 C-35.0412179 77.54428156 -27.68729559 77.47079124 -20.4375 76.6875 C-11.27857487 74.3506549 -5.38162693 69.7951232 -0.515625 61.75 C3.11160232 54.81095643 3.53503901 48.44349862 2.5625 40.6875 C0.96109302 36.41863315 -1.05047092 32.56642226 -3.4375 28.6875 C-4.0975 28.6875 -4.7575 28.6875 -5.4375 28.6875 C-5.67726563 28.08292969 -5.91703125 27.47835937 -6.1640625 26.85546875 C-7.7164006 24.21268455 -9.11940437 23.41812511 -11.8125 22 C-12.58335937 21.58363281 -13.35421875 21.16726562 -14.1484375 20.73828125 C-28.42562602 14.18441826 -41.60767317 19.91818529 -51.4375 30.6875 Z " fill="#FDFDFD" transform="translate(944.4375,124.3125)"/>
<path d="M0 0 C1.27536621 0.01095703 2.55073242 0.02191406 3.86474609 0.03320312 C20.36482819 0.41373032 32.34185017 5.77790887 43.875 17.8125 C53.30024196 29.03763416 55.93283029 40.86753571 55.6875 55.125 C55.67847656 56.13369141 55.66945313 57.14238281 55.66015625 58.18164062 C55.63683356 60.64218457 55.60410763 63.10220896 55.5625 65.5625 C52.48980298 67.09884851 49.27048882 66.69217825 45.89990234 66.67602539 C44.71440544 66.67624443 44.71440544 66.67624443 43.50495911 66.6764679 C40.88609089 66.67576983 38.26729333 66.66798239 35.6484375 66.66015625 C33.83525634 66.65829169 32.02207467 66.65686797 30.20889282 66.65586853 C25.43146377 66.65204632 20.65406501 66.64221855 15.87664795 66.63116455 C11.00370697 66.62094407 6.1307611 66.61636954 1.2578125 66.61132812 C-8.30730499 66.60059603 -17.87239998 66.58352314 -27.4375 66.5625 C-27.03917969 67.35914063 -27.03917969 67.35914063 -26.6328125 68.171875 C-23.4375 74.5625 -23.4375 74.5625 -22.421875 76.75805664 C-21.13514136 79.11674918 -19.88953635 79.54833056 -17.4375 80.5625 C-16.7775 80.90410156 -16.1175 81.24570313 -15.4375 81.59765625 C-14.7775 81.93667969 -14.1175 82.27570313 -13.4375 82.625 C-12.7775 82.96660156 -12.1175 83.30820313 -11.4375 83.66015625 C-4.04172377 86.99692248 5.36841307 86.74228674 12.875 83.9375 C16.99311018 82.08568747 20.32082121 79.6423554 23.67578125 76.63671875 C25.5625 75.5625 25.5625 75.5625 27.8359375 75.56640625 C31.72682718 76.98786308 34.64217387 79.26219638 37.875 81.8125 C38.52017578 82.29074219 39.16535156 82.76898438 39.83007812 83.26171875 C44.3832094 86.81749746 44.3832094 86.81749746 45.19140625 90.17578125 C43.5408535 96.4396802 36.84908102 100.58848893 31.625 103.875 C17.35486895 111.95408958 -1.95299839 113.26596535 -17.828125 109.7734375 C-31.93513747 105.47571975 -42.94793439 97.36133545 -50.4375 84.5625 C-57.95987043 68.52600383 -58.94282315 49.47319075 -53.4375 32.5625 C-48.3926338 20.52397194 -39.41926436 10.11658488 -27.4375 4.5625 C-18.27233773 0.94482085 -9.80496935 -0.1192724 0 0 Z M-21.4375 32.5625 C-24.30378281 36.4784075 -26.25298805 39.82445222 -27.4375 44.5625 C-9.6175 44.5625 8.2025 44.5625 26.5625 44.5625 C23.85937111 36.45311332 20.23745458 30.81566509 12.71484375 26.52734375 C0.93332758 21.24597443 -12.0859372 23.69050453 -21.4375 32.5625 Z " fill="#FDFDFD" transform="translate(516.4375,116.4375)"/>
<path d="M0 0 C10.19327947 6.82727441 16.7765015 14.41821139 19.89248657 26.29556274 C21.14571058 33.18795294 20.87041679 40.18049717 20.80078125 47.16015625 C20.79517419 48.82594925 20.79090935 50.49174725 20.78791809 52.157547 C20.77655659 56.50589059 20.74716617 60.85392542 20.71380615 65.20214844 C20.68291593 69.65360337 20.66937257 74.10510902 20.65429688 78.55664062 C20.6222865 87.26447922 20.56959155 95.97200918 20.5078125 104.6796875 C11.2678125 104.6796875 2.0278125 104.6796875 -7.4921875 104.6796875 C-7.5015332 102.72224609 -7.51087891 100.76480469 -7.52050781 98.74804688 C-7.55612584 92.2578981 -7.60998113 85.76809773 -7.67609024 79.27819061 C-7.71548607 75.34592598 -7.74771285 71.41388263 -7.76318359 67.48144531 C-7.77840279 63.68157595 -7.81293987 59.88231525 -7.86049652 56.0827179 C-7.87525647 54.63801891 -7.88322541 53.193233 -7.88407135 51.74845886 C-7.87242319 39.25513945 -7.87242319 39.25513945 -14.28125 28.83984375 C-20.13531056 25.33986286 -25.92418331 23.77086991 -32.73046875 25.125 C-38.48534967 27.01078019 -42.02113991 30.1675151 -45.09692383 35.42016602 C-47.57139797 41.44967028 -46.97575619 48.17391438 -47.00390625 54.58203125 C-47.02077112 56.02935798 -47.03892378 57.47667022 -47.05830383 58.92396545 C-47.10561425 62.71322095 -47.13554557 66.50241769 -47.16174316 70.29187012 C-47.19691235 74.84926981 -47.2538706 79.40644399 -47.30713654 83.96366119 C-47.38542806 90.86897385 -47.43620062 97.77399584 -47.4921875 104.6796875 C-56.7321875 104.6796875 -65.9721875 104.6796875 -75.4921875 104.6796875 C-75.4921875 69.6996875 -75.4921875 34.7196875 -75.4921875 -1.3203125 C-68.2321875 -1.3203125 -60.9721875 -1.3203125 -53.4921875 -1.3203125 C-53.1621875 1.9796875 -52.8321875 5.2796875 -52.4921875 8.6796875 C-51.4196875 7.6278125 -50.3471875 6.5759375 -49.2421875 5.4921875 C-36.4864142 -5.3469152 -15.1223974 -7.80368612 0 0 Z " fill="#FDFDFD" transform="translate(1085.4921875,120.3203125)"/>
<path d="M0 0 C6.5328396 -0.02290439 13.06554097 -0.04283288 19.59838867 -0.05493164 C21.82267732 -0.05997317 24.04696263 -0.06680623 26.27124023 -0.07543945 C29.46078309 -0.08751298 32.65028229 -0.09322996 35.83984375 -0.09765625 C37.34139259 -0.10539818 37.34139259 -0.10539818 38.87327576 -0.11329651 C39.79415482 -0.11337204 40.71503387 -0.11344757 41.66381836 -0.11352539 C42.47878281 -0.115746 43.29374725 -0.11796661 44.13340759 -0.12025452 C46 0 46 0 47 1 C47.09597204 2.59422036 47.12187924 4.1927045 47.12025452 5.78981018 C47.12162918 6.82612579 47.12300385 7.86244141 47.12442017 8.93016052 C47.11902725 10.64997887 47.11902725 10.64997887 47.11352539 12.40454102 C47.11367142 13.60437622 47.11381744 14.80421143 47.1139679 16.04040527 C47.11338894 19.33985191 47.10835978 22.63923664 47.10139394 25.9386723 C47.09515973 29.38334297 47.09455655 32.82801438 47.09336853 36.27268982 C47.09025541 42.7998273 47.08204229 49.32694811 47.07201904 55.85407823 C47.0608573 63.28322016 47.0553473 70.71236286 47.05032361 78.14151108 C47.03985966 93.42768399 47.02206012 108.71383919 47 124 C52.61 124.33 58.22 124.66 64 125 C64 131.93 64 138.86 64 146 C42.88 146 21.76 146 0 146 C0 139.07 0 132.14 0 125 C6.27 125 12.54 125 19 125 C19 91.34 19 57.68 19 23 C12.73 23 6.46 23 0 23 C0 15.41 0 7.82 0 0 Z " fill="#FDFDFD" transform="translate(794,79)"/>
<path d="M0 0 C8.91 0 17.82 0 27 0 C27 27.39 27 54.78 27 83 C32.61 83 38.22 83 44 83 C49.19080383 88.19080383 45 97.65909482 45 105 C30.15 105 15.3 105 0 105 C0 70.35 0 35.7 0 0 Z " fill="#FCFCFC" transform="translate(735,120)"/>
<path d="M0 0 C4.64031572 3.45049118 7.27901033 7.12536888 8.4375 12.8125 C8.60997224 19.14606396 8.06802315 24.50231506 3.86328125 29.44140625 C-0.38261082 33.52444218 -4.27966785 34.04032001 -10 34.25 C-15.80707028 34.09787857 -19.04096807 33.46820667 -23.5625 29.8125 C-27.90759717 25.01002418 -28.79046792 20.11961234 -28.5625 13.8125 C-27.75396118 8.89907181 -26.3699578 5.12622262 -22.5625 1.8125 C-16.03122855 -2.54168097 -7.32581028 -2.44193676 0 0 Z " fill="#FCFCFC" transform="translate(757.5625,70.1875)"/>
<path d="M0 0 C5.754375 -0.0928125 5.754375 -0.0928125 11.625 -0.1875 C13.42251709 -0.22846802 13.42251709 -0.22846802 15.25634766 -0.27026367 C20.89146558 -0.31426585 25.18821128 -0.31623276 30 3 C32.42211953 5.97260124 32.35912126 9.27156701 32.25390625 13.03125 C31.87594724 15.96188605 30.89892022 17.76198688 29 20 C26.890625 20.62890625 26.890625 20.62890625 25 21 C25.97453125 22.33804687 25.97453125 22.33804687 26.96875 23.703125 C27.81299275 24.88506485 28.65671572 26.06737611 29.5 27.25 C29.92925781 27.83652344 30.35851563 28.42304688 30.80078125 29.02734375 C33.18427575 32.39450265 34 33.75299728 34 38 C30.45488924 38.71919255 27.51988479 38.92234941 24 38 C20.64870779 34.73971732 18.20985076 31.11106314 16 27 C16 26.34 16 25.68 16 25 C13.69 24.34 11.38 23.68 9 23 C9 27.95 9 32.9 9 38 C6.03 38 3.06 38 0 38 C0 25.46 0 12.92 0 0 Z M9 8 C8.95758277 10.33294775 8.95907063 12.66702567 9 15 C10.56941198 16.56941198 12.14134994 16.2449847 14.3125 16.3125 C17.82699145 16.29571103 18.69309167 16.23953821 21.5625 14 C22.2740625 13.01 22.2740625 13.01 23 12 C22.34 10.68 21.68 9.36 21 8 C17.04 8 13.08 8 9 8 Z " fill="#FAFAFA" transform="translate(1067,283)"/>
<path d="M0 0 C10 0 10 0 12.23681641 1.8359375 C12.68718262 2.67382812 13.13754883 3.51171875 13.6015625 4.375 C14.11074219 5.27734375 14.61992188 6.1796875 15.14453125 7.109375 C15.63308594 8.06328125 16.12164063 9.0171875 16.625 10 C17.15222656 10.95390625 17.67945313 11.9078125 18.22265625 12.890625 C19.51589508 15.24196832 20.76261996 17.61878755 22 20 C22.33 13.4 22.66 6.8 23 0 C25.64 0 28.28 0 31 0 C31 12.54 31 25.08 31 38 C22 38 22 38 19.765625 36.12890625 C19.26546875 35.28199219 18.7653125 34.43507813 18.25 33.5625 C17.69699219 32.65886719 17.14398437 31.75523437 16.57421875 30.82421875 C16.05472656 29.89222656 15.53523437 28.96023438 15 28 C14.49082031 27.11957031 13.98164062 26.23914063 13.45703125 25.33203125 C12.27003016 23.24064838 11.12987264 21.12279101 10 19 C9.67 25.27 9.34 31.54 9 38 C6.03 38 3.06 38 0 38 C0 25.46 0 12.92 0 0 Z " fill="#F9F9F9" transform="translate(549,283)"/>
<path d="M0 0 C5.0428125 -0.061875 5.0428125 -0.061875 10.1875 -0.125 C11.23832764 -0.14320801 12.28915527 -0.16141602 13.37182617 -0.18017578 C14.21205322 -0.1851709 15.05228027 -0.19016602 15.91796875 -0.1953125 C16.77156982 -0.20578613 17.6251709 -0.21625977 18.50463867 -0.22705078 C22.01254644 0.09213073 24.91643919 1.01768098 27.546875 3.40234375 C31.74532586 8.759458 32.20494615 12.68395244 32.25 19.3125 C32.270625 20.05951172 32.29125 20.80652344 32.3125 21.57617188 C32.3467089 26.44666427 31.83982855 29.86554373 29 34 C24.52512107 38.31761481 20.51633902 38.42469104 14.59814453 38.36035156 C13.45200684 38.32393555 12.30586914 38.28751953 11.125 38.25 C7.45375 38.1675 3.7825 38.085 0 38 C0 25.46 0 12.92 0 0 Z M9 8 C8.97112488 11.64581687 8.95324415 15.29160463 8.9375 18.9375 C8.92912109 19.97841797 8.92074219 21.01933594 8.91210938 22.09179688 C8.90888672 23.08115234 8.90566406 24.07050781 8.90234375 25.08984375 C8.89710693 26.00628662 8.89187012 26.92272949 8.88647461 27.86694336 C8.76078789 29.98363023 8.76078789 29.98363023 10 31 C12.26717106 31.0901524 12.26717106 31.0901524 14.875 30.875 C15.75929688 30.83117187 16.64359375 30.78734375 17.5546875 30.7421875 C20.17950709 30.1927181 20.17950709 30.1927181 21.7890625 27.8203125 C23.88325265 22.94287609 23.73988517 18.20074622 23 13 C21.30900009 9.55792201 21.30900009 9.55792201 18 8 C15.70817937 7.78911946 15.70817937 7.78911946 13.30859375 7.890625 C12.50091553 7.90641602 11.6932373 7.92220703 10.86108398 7.93847656 C10.24692627 7.9587793 9.63276855 7.97908203 9 8 Z " fill="#F7F7F7" transform="translate(880,283)"/>
<path d="M0 0 C9.57 0 19.14 0 29 0 C29 2.64 29 5.28 29 8 C22.4 8 15.8 8 9 8 C9.33 9.98 9.66 11.96 10 14 C15.94 14.33 21.88 14.66 28 15 C28 17.31 28 19.62 28 22 C21.73 22 15.46 22 9 22 C9 24.97 9 27.94 9 31 C15.93 31 22.86 31 30 31 C30 33.31 30 35.62 30 38 C26.23487702 38.89818596 22.90422547 39.0571181 19.04296875 38.87890625 C18.04031982 38.83580322 17.0376709 38.7927002 16.00463867 38.74829102 C14.74498291 38.68697998 13.48532715 38.62566895 12.1875 38.5625 C8.165625 38.376875 4.14375 38.19125 0 38 C0 25.46 0 12.92 0 0 Z " fill="#F8F8F8" transform="translate(828,283)"/>
<path d="M0 0 C3.3 0 6.6 0 10 0 C12.78501742 6.21945593 15.48913543 12.4660187 18.125 18.75 C18.47175781 19.57371094 18.81851563 20.39742188 19.17578125 21.24609375 C19.83631933 22.81771884 20.49451065 24.39033316 21.14990234 25.96411133 C21.83465385 27.60401448 22.53245574 29.23846509 23.234375 30.87109375 C24.23018475 33.64005453 24.13565637 36.08338795 24 39 C20.89931623 38.98699923 17.99616073 38.83403765 15 38 C13.04423344 35.2145143 12 33.42208464 12 30 C5.565 30.495 5.565 30.495 -1 31 C-1.99 33.31 -2.98 35.62 -4 38 C-8.455 38.495 -8.455 38.495 -13 39 C-13.26896951 34.22556626 -12.44823541 30.88357475 -10.6640625 26.46484375 C-10.17679688 25.24345703 -9.68953125 24.02207031 -9.1875 22.76367188 C-8.66690588 21.48818359 -8.14607037 20.2127938 -7.625 18.9375 C-7.11103482 17.65858223 -6.59800517 16.37928807 -6.0859375 15.09960938 C-4.73286079 11.72938015 -3.36755958 8.36436934 -2 5 C-1.33207601 3.33383681 -0.66492828 1.66736097 0 0 Z M5 13 C4.01 15.97 3.02 18.94 2 22 C4.31 22 6.62 22 9 22 C8.01 19.03 7.02 16.06 6 13 C5.67 13 5.34 13 5 13 Z " fill="#FBFBFB" transform="translate(977,283)"/>
<path d="M0 0 C9.57 0 19.14 0 29 0 C29 2.64 29 5.28 29 8 C22.4 8 15.8 8 9 8 C9.33 9.98 9.66 11.96 10 14 C15.61 14.33 21.22 14.66 27 15 C27 17.31 27 19.62 27 22 C21.06 22 15.12 22 9 22 C9 24.97 9 27.94 9 31 C15.93 31 22.86 31 30 31 C30 33.31 30 35.62 30 38 C20.1 38 10.2 38 0 38 C0 25.46 0 12.92 0 0 Z " fill="#F7F7F7" transform="translate(1154,283)"/>
<path d="M0 0 C3.3 0 6.6 0 10 0 C13.68404605 7.13906614 16.88768216 14.3325582 19.8125 21.8125 C20.21919922 22.82248047 20.62589844 23.83246094 21.04492188 24.87304688 C21.42841797 25.84951172 21.81191406 26.82597656 22.20703125 27.83203125 C22.5522583 28.70577393 22.89748535 29.5795166 23.25317383 30.47973633 C24.03436641 33.11597399 24.14071022 35.26642037 24 38 C21.03 38 18.06 38 15 38 C14.01 35.69 13.02 33.38 12 31 C7.71 31 3.42 31 -1 31 C-1.99 33.31 -2.98 35.62 -4 38 C-6.97 38 -9.94 38 -13 38 C-12.43897919 32.84035268 -11.21163907 28.36073159 -9.27734375 23.53515625 C-9.01240616 22.85698349 -8.74746857 22.17881073 -8.47450256 21.48008728 C-7.63584449 19.33805889 -6.78688037 17.20029613 -5.9375 15.0625 C-5.36324306 13.60118212 -4.78966864 12.13959583 -4.21679688 10.67773438 C-2.8190666 7.11533901 -1.41208555 3.55672819 0 0 Z M5 13 C4.01 15.97 3.02 18.94 2 22 C4.31 22 6.62 22 9 22 C8.01 19.03 7.02 16.06 6 13 C5.67 13 5.34 13 5 13 Z " fill="#FAFAFA" transform="translate(701,283)"/>
<path d="M0 0 C2.73064626 2.66062969 3.91068971 3.99525923 4.25 7.8125 C4.1675 8.534375 4.085 9.25625 4 10 C0.97299706 10.66607254 -1.89520398 11.15183657 -5 11 C-7.75 8.5 -7.75 8.5 -10 6 C-13.02019093 6 -14.3888382 6.51980144 -16.75 8.375 C-19.61655153 12.10151698 -19.45701773 16.51445561 -19 21 C-18.06636718 24.45396101 -18.06636718 24.45396101 -16 27 C-13.16024942 28.41774107 -13.16024942 28.41774107 -10 28 C-7.14515489 25.72889272 -7.14515489 25.72889272 -5 23 C-4.67 22.67 -4.34 22.34 -4 22 C-1.30917128 22.17635452 1.32851446 22.61835921 4 23 C3.58675744 28.2688427 2.77055562 31.22944438 -1 35 C-5.89158024 38.08828244 -11.42548282 37.47824276 -17 37 C-21.78394426 35.37687605 -24.21115115 33.18327328 -27 29 C-28.98170602 24.9442504 -29.29785679 21.55796545 -29.3125 17.0625 C-29.32925781 15.87785156 -29.34601562 14.69320313 -29.36328125 13.47265625 C-28.79427473 8.03344343 -26.77127988 4.16513327 -22.5625 0.6875 C-21.98628906 0.19636719 -21.41007813 -0.29476563 -20.81640625 -0.80078125 C-14.42669112 -5.01936737 -6.28236586 -3.50362711 0 0 Z " fill="#FAFAFA" transform="translate(664,285)"/>
<path d="M0 0 C2.18704905 1.78940377 3.68109515 3.21551238 5.0625 5.6875 C5.25 8.4375 5.25 8.4375 5.0625 10.6875 C2.15954195 12.13897903 0.28988221 12.05989025 -2.9375 11.6875 C-3.948125 10.841875 -4.95875 9.99625 -6 9.125 C-8.64628003 6.4161864 -8.64628003 6.4161864 -11.625 6.625 C-14.58304404 7.98410132 -15.4700039 8.7525078 -16.9375 11.6875 C-18.05706732 16.1399331 -18.40756602 20.28637643 -16.9375 24.6875 C-15.17878078 28.02719795 -15.17878078 28.02719795 -11.4375 28.6875 C-7.96385231 28.8719662 -7.96385231 28.8719662 -4.9375 27.6875 C-3.71880071 25.18302484 -3.71880071 25.18302484 -2.9375 22.6875 C0.0325 23.0175 3.0025 23.3475 6.0625 23.6875 C5.67374961 29.13000545 3.89697004 31.85302996 0.0625 35.6875 C-5.55904057 38.45126744 -12.06781365 38.93716018 -18.06640625 37 C-23.31708408 34.27826635 -26.10537859 30.18386423 -27.9375 24.6875 C-28.72899691 15.20251248 -27.88142615 8.85540323 -22.125 1.3125 C-15.64643266 -3.50015002 -7.14155046 -3.19090552 0 0 Z " fill="#FAFAFA" transform="translate(439.9375,284.3125)"/>
<path d="M0 0 C5.0428125 -0.061875 5.0428125 -0.061875 10.1875 -0.125 C11.23832764 -0.14320801 12.28915527 -0.16141602 13.37182617 -0.18017578 C14.21205322 -0.1851709 15.05228027 -0.19016602 15.91796875 -0.1953125 C16.77156982 -0.20578613 17.6251709 -0.21625977 18.50463867 -0.22705078 C22.10376386 0.10043052 24.95333589 1.14024019 27.75 3.4375 C30.39381794 6.74227242 30.48125038 10.57654781 30.375 14.640625 C29.82559215 18.09731606 28.73633516 20.15840481 26.33203125 22.69140625 C21.21938932 25.56030917 14.7335468 25.05106212 9 25 C9 29.29 9 33.58 9 38 C6.03 38 3.06 38 0 38 C0 25.46 0 12.92 0 0 Z M9 8 C9 10.97 9 13.94 9 17 C10.6260287 16.93999894 12.25101549 16.8512115 13.875 16.75 C14.77992188 16.70359375 15.68484375 16.6571875 16.6171875 16.609375 C19.17110544 16.24388852 19.17110544 16.24388852 20.3203125 13.953125 C21.26728372 11.96439741 21.26728372 11.96439741 20.0625 10 C17.54442986 7.55823502 16.71892628 7.72857594 13.3125 7.75 C11.889375 7.8325 10.46625 7.915 9 8 Z " fill="#FAFAFA" transform="translate(776,283)"/>
<path d="M0 0 C1.25159912 0.00523682 2.50319824 0.01047363 3.79272461 0.01586914 C4.78942421 0.01799156 4.78942421 0.01799156 5.80625916 0.02015686 C7.93590735 0.02577021 10.06545175 0.03832485 12.19506836 0.05102539 C13.63582205 0.05603868 15.07657739 0.06060188 16.51733398 0.06469727 C20.05577938 0.07574394 23.59416375 0.09301747 27.13256836 0.11352539 C27.13256836 2.75352539 27.13256836 5.39352539 27.13256836 8.11352539 C23.50256836 8.11352539 19.87256836 8.11352539 16.13256836 8.11352539 C16.13256836 18.01352539 16.13256836 27.91352539 16.13256836 38.11352539 C13.16256836 38.11352539 10.19256836 38.11352539 7.13256836 38.11352539 C7.13256836 28.21352539 7.13256836 18.31352539 7.13256836 8.11352539 C3.83256836 8.11352539 0.53256836 8.11352539 -2.86743164 8.11352539 C-3.86743164 7.11352539 -3.86743164 7.11352539 -3.99243164 4.11352539 C-3.82734849 0.15152976 -3.82734849 0.15152976 0 0 Z " fill="#FAFAFA" transform="translate(1018.867431640625,282.886474609375)"/>
<path d="M0 0 C2.64 0 5.28 0 8 0 C9 1 9 1 9.11352539 3.86743164 C9.10828857 5.11903076 9.10305176 6.37062988 9.09765625 7.66015625 C9.0962413 8.32462265 9.09482635 8.98908905 9.09336853 9.6736908 C9.08775518 11.80333899 9.07520054 13.93288339 9.0625 16.0625 C9.05748671 17.50325369 9.05292351 18.94400903 9.04882812 20.38476562 C9.03863076 23.92324958 9.0190583 27.46150813 9 31 C14.94 31 20.88 31 27 31 C27 33.31 27 35.62 27 38 C18.09 38 9.18 38 0 38 C0 25.46 0 12.92 0 0 Z " fill="#F5F5F5" transform="translate(469,283)"/>
<path d="M0 0 C2.97 0 5.94 0 9 0 C9 12.54 9 25.08 9 38 C6.03 38 3.06 38 0 38 C0 25.46 0 12.92 0 0 Z " fill="#F8F8F8" transform="translate(1122,283)"/>
<path d="M0 0 C2.97 0 5.94 0 9 0 C9 12.54 9 25.08 9 38 C6.03 38 3.06 38 0 38 C0 25.46 0 12.92 0 0 Z " fill="#FDFDFD" transform="translate(604,283)"/>
<path d="M0 0 C2.97 0 5.94 0 9 0 C9 12.54 9 25.08 9 38 C6.03 38 3.06 38 0 38 C0 25.46 0 12.92 0 0 Z " fill="#F8F8F8" transform="translate(517,283)"/>
<path d="M0 0 C2.64 0 5.28 0 8 0 C9 1 9 1 9.11352539 4.51000977 C9.11336626 6.07048422 9.10767142 7.63096393 9.09765625 9.19140625 C9.0962413 10.01124496 9.09482635 10.83108368 9.09336853 11.67576599 C9.08775289 14.30471382 9.07519779 16.93357773 9.0625 19.5625 C9.05748701 21.34049357 9.05292376 23.11848846 9.04882812 24.89648438 C9.03777839 29.26435545 9.02050331 33.63216348 9 38 C6.03 38 3.06 38 0 38 C0 25.46 0 12.92 0 0 Z " fill="#F8F8F8" transform="translate(935,283)"/>
<path d="" fill="#A8A8A8" transform="translate(0,0)"/>
</svg>
